<?xml version="1.0" encoding="UTF-8"?>
<svg id="Layer_1" xmlns="http://www.w3.org/2000/svg" xmlns:xlink="http://www.w3.org/1999/xlink" version="1.1" viewBox="0 0 336 280">
  <!-- Generator: Adobe Illustrator 30.4.0, SVG Export Plug-In . SVG Version: 2.1.4 Build 226)  -->
  <defs>
    <clipPath id="clippath">
      <rect fill="none" x="219.02" y="54.73" width="18.88" height="20.5"/>
    </clipPath>
    <clipPath id="clippath-1">
      <path fill="none" d="M225.85,75.22c-1.82,0-3.5-.62-4.76-1.91-3.23-3.28-2.58-9.66,1.45-14.25,2.45-2.78,5.59-4.27,8.39-4.27,1.82,0,3.49.62,4.76,1.91,3.23,3.28,2.58,9.67-1.45,14.25-2.45,2.79-5.58,4.27-8.39,4.27M230.16,57.51c-2.28,0-4.85,1.32-6.8,3.74-3.02,3.76-3.37,8.73-.8,11.1.92.84,2.08,1.25,3.34,1.25,2.28,0,4.86-1.32,6.8-3.74,3.02-3.75,3.38-8.72.8-11.1-.92-.85-2.09-1.25-3.34-1.25Z"/>
    </clipPath>
    <clipPath id="clippath-2">
      <path fill="none" d="M225.85,75.22c-1.82,0-3.5-.62-4.76-1.91-3.23-3.28-2.58-9.66,1.45-14.25,2.45-2.78,5.59-4.27,8.39-4.27,1.82,0,3.49.62,4.76,1.91,3.23,3.28,2.58,9.67-1.45,14.25-2.45,2.79-5.58,4.27-8.39,4.27M230.16,57.51c-2.28,0-4.85,1.32-6.8,3.74-3.02,3.76-3.37,8.73-.8,11.1.92.84,2.08,1.25,3.34,1.25,2.28,0,4.86-1.32,6.8-3.74,3.02-3.75,3.38-8.72.8-11.1-.92-.85-2.09-1.25-3.34-1.25Z"/>
    </clipPath>
    <radialGradient id="radial-gradient" cx="1080.86" cy="-92.76" fx="1080.86" fy="-92.76" r="9.74" gradientTransform="translate(1029.9202 744.2188) rotate(-134.5402) scale(.9744 1.023) skewX(4.331)" gradientUnits="userSpaceOnUse">
      <stop offset="0" stop-color="#fff"/>
      <stop offset=".5" stop-color="#fff"/>
      <stop offset=".62" stop-color="#fff"/>
      <stop offset=".65" stop-color="#fff"/>
      <stop offset=".66" stop-color="#fefefe"/>
      <stop offset=".66" stop-color="#fdfdfd"/>
      <stop offset=".67" stop-color="#fcfcfc"/>
      <stop offset=".68" stop-color="#fbfbfb"/>
      <stop offset=".69" stop-color="#fbfbfb"/>
      <stop offset=".7" stop-color="#fafafa"/>
      <stop offset=".7" stop-color="#f9f9f9"/>
      <stop offset=".71" stop-color="#f8f8f8"/>
      <stop offset=".72" stop-color="#f7f7f7"/>
      <stop offset=".73" stop-color="#f7f7f7"/>
      <stop offset=".73" stop-color="#f6f6f6"/>
      <stop offset=".74" stop-color="#f5f5f5"/>
      <stop offset=".75" stop-color="#f4f4f4"/>
      <stop offset=".76" stop-color="#f3f3f3"/>
      <stop offset=".76" stop-color="#f3f3f3"/>
      <stop offset=".77" stop-color="#f3f3f3"/>
      <stop offset=".77" stop-color="#f2f2f2"/>
      <stop offset=".77" stop-color="#f2f2f2"/>
      <stop offset=".78" stop-color="#f1f1f1"/>
      <stop offset=".78" stop-color="#f1f1f1"/>
      <stop offset=".79" stop-color="#f1f1f1"/>
      <stop offset=".79" stop-color="#f0f0f0"/>
      <stop offset=".79" stop-color="#f0f0f0"/>
      <stop offset=".8" stop-color="#efefef"/>
      <stop offset=".8" stop-color="#efefef"/>
      <stop offset=".8" stop-color="#eee"/>
      <stop offset=".81" stop-color="#eee"/>
      <stop offset=".81" stop-color="#eee"/>
      <stop offset=".82" stop-color="#ededed"/>
      <stop offset=".82" stop-color="#ececec"/>
      <stop offset=".83" stop-color="#ebebeb"/>
      <stop offset=".84" stop-color="#ebebeb"/>
      <stop offset=".85" stop-color="#eaeaea"/>
      <stop offset=".86" stop-color="#e9e9e9"/>
      <stop offset=".86" stop-color="#e8e8e8"/>
      <stop offset=".87" stop-color="#e7e7e7"/>
      <stop offset=".88" stop-color="#e7e7e7"/>
      <stop offset=".88" stop-color="#e6e6e6"/>
      <stop offset=".89" stop-color="#e6e6e6"/>
      <stop offset=".89" stop-color="#e5e5e5"/>
      <stop offset=".89" stop-color="#e5e5e5"/>
      <stop offset=".9" stop-color="#e5e5e5"/>
      <stop offset=".9" stop-color="#e4e4e4"/>
      <stop offset=".91" stop-color="#e4e4e4"/>
      <stop offset=".91" stop-color="#e3e3e3"/>
      <stop offset=".92" stop-color="#e2e2e2"/>
      <stop offset=".93" stop-color="#e1e1e1"/>
      <stop offset=".93" stop-color="#e1e1e1"/>
      <stop offset=".94" stop-color="#e0e0e0"/>
      <stop offset=".95" stop-color="#e0e0e0"/>
      <stop offset=".95" stop-color="#dfdfdf"/>
      <stop offset=".95" stop-color="#dfdfdf"/>
      <stop offset=".96" stop-color="#dedede"/>
      <stop offset=".96" stop-color="#ddd"/>
      <stop offset=".97" stop-color="#ddd"/>
      <stop offset=".98" stop-color="#dcdcdc"/>
      <stop offset=".98" stop-color="#dcdcdc"/>
      <stop offset=".99" stop-color="#dbdbdb"/>
      <stop offset=".99" stop-color="#dadada"/>
      <stop offset="1" stop-color="#dadada"/>
    </radialGradient>
    <clipPath id="clippath-3">
      <rect fill="none" x="220.81" y="57.5" width="14.48" height="16.11"/>
    </clipPath>
    <clipPath id="clippath-4">
      <path fill="none" d="M225.91,73.6c-1.26,0-2.43-.4-3.34-1.25-2.58-2.38-2.22-7.35.8-11.1,1.95-2.42,4.52-3.74,6.8-3.74,1.26,0,2.42.4,3.34,1.25,2.58,2.38,2.22,7.35-.8,11.1-1.95,2.42-4.52,3.74-6.8,3.74M224.93,62.99c-.34.29-.67.62-.97.98-2.1,2.54-2.29,6.04-.42,7.8.71.67,1.62,1,2.59,1,1.56,0,3.29-.84,4.58-2.41,2.09-2.55,2.28-6.04.42-7.8-.71-.67-1.62-1-2.59-1-.34,0-.69.04-1.05.12-.21-.08-.42-.12-.64-.12-.6,0-1.19.29-1.61.84-.14.19-.25.39-.32.59Z"/>
    </clipPath>
    <clipPath id="clippath-5">
      <path fill="none" d="M225.91,73.6c-1.26,0-2.43-.4-3.34-1.25-2.58-2.38-2.22-7.35.8-11.1,1.95-2.42,4.52-3.74,6.8-3.74,1.26,0,2.42.4,3.34,1.25,2.58,2.38,2.22,7.35-.8,11.1-1.95,2.42-4.52,3.74-6.8,3.74M224.93,62.99c-.34.29-.67.62-.97.98-2.1,2.54-2.29,6.04-.42,7.8.71.67,1.62,1,2.59,1,1.56,0,3.29-.84,4.58-2.41,2.09-2.55,2.28-6.04.42-7.8-.71-.67-1.62-1-2.59-1-.34,0-.69.04-1.05.12-.21-.08-.42-.12-.64-.12-.6,0-1.19.29-1.61.84-.14.19-.25.39-.32.59Z"/>
    </clipPath>
    <radialGradient id="radial-gradient1" cx="-1100.89" cy="-18.53" fx="-1100.89" fy="-18.53" r="7.57" gradientTransform="translate(1039.1675 758.4607) rotate(41.5286) scale(.97 -1.0279) skewX(-3.9258)" gradientUnits="userSpaceOnUse">
      <stop offset="0" stop-color="#fff"/>
      <stop offset=".12" stop-color="#fff"/>
      <stop offset=".15" stop-color="#fff"/>
      <stop offset=".18" stop-color="#fefffe"/>
      <stop offset=".18" stop-color="#fefefd"/>
      <stop offset=".18" stop-color="#fdfefc"/>
      <stop offset=".19" stop-color="#fdfefb"/>
      <stop offset=".19" stop-color="#fcfefa"/>
      <stop offset=".2" stop-color="#fcfdf9"/>
      <stop offset=".2" stop-color="#fbfdf8"/>
      <stop offset=".2" stop-color="#fafdf7"/>
      <stop offset=".21" stop-color="#fafcf6"/>
      <stop offset=".21" stop-color="#f9fcf5"/>
      <stop offset=".21" stop-color="#f9fcf4"/>
      <stop offset=".22" stop-color="#f8fcf3"/>
      <stop offset=".22" stop-color="#f8fbf2"/>
      <stop offset=".23" stop-color="#f7fbf2"/>
      <stop offset=".23" stop-color="#f6fbf1"/>
      <stop offset=".23" stop-color="#f6faf0"/>
      <stop offset=".24" stop-color="#f5faef"/>
      <stop offset=".24" stop-color="#f5faee"/>
      <stop offset=".25" stop-color="#f4faed"/>
      <stop offset=".25" stop-color="#f4f9ec"/>
      <stop offset=".25" stop-color="#f3f9eb"/>
      <stop offset=".26" stop-color="#f2f9ea"/>
      <stop offset=".26" stop-color="#f2f8e9"/>
      <stop offset=".27" stop-color="#f1f8e8"/>
      <stop offset=".27" stop-color="#f1f8e7"/>
      <stop offset=".27" stop-color="#f0f8e6"/>
      <stop offset=".28" stop-color="#f0f7e5"/>
      <stop offset=".28" stop-color="#eff7e4"/>
      <stop offset=".29" stop-color="#eff7e3"/>
      <stop offset=".29" stop-color="#eef6e2"/>
      <stop offset=".29" stop-color="#edf6e1"/>
      <stop offset=".3" stop-color="#edf6e0"/>
      <stop offset=".3" stop-color="#ecf6df"/>
      <stop offset=".3" stop-color="#ecf5de"/>
      <stop offset=".31" stop-color="#ebf5dd"/>
      <stop offset=".31" stop-color="#ebf5dd"/>
      <stop offset=".32" stop-color="#eaf4dc"/>
      <stop offset=".32" stop-color="#e9f4db"/>
      <stop offset=".32" stop-color="#e9f4da"/>
      <stop offset=".33" stop-color="#e8f4d9"/>
      <stop offset=".33" stop-color="#e8f3d8"/>
      <stop offset=".34" stop-color="#e7f3d7"/>
      <stop offset=".34" stop-color="#e7f3d6"/>
      <stop offset=".34" stop-color="#e6f3d5"/>
      <stop offset=".35" stop-color="#e5f2d4"/>
      <stop offset=".35" stop-color="#e5f2d3"/>
      <stop offset=".36" stop-color="#e4f2d2"/>
      <stop offset=".36" stop-color="#e4f1d1"/>
      <stop offset=".36" stop-color="#e3f1d0"/>
      <stop offset=".37" stop-color="#e3f1cf"/>
      <stop offset=".37" stop-color="#e2f1ce"/>
      <stop offset=".38" stop-color="#e1f0cd"/>
      <stop offset=".38" stop-color="#e1f0cc"/>
      <stop offset=".38" stop-color="#e0f0cb"/>
      <stop offset=".39" stop-color="#e0efca"/>
      <stop offset=".39" stop-color="#dfefc9"/>
      <stop offset=".39" stop-color="#dfefc8"/>
      <stop offset=".4" stop-color="#deefc8"/>
      <stop offset=".4" stop-color="#deeec7"/>
      <stop offset=".41" stop-color="#ddeec6"/>
      <stop offset=".41" stop-color="#dceec5"/>
      <stop offset=".41" stop-color="#dcedc4"/>
      <stop offset=".42" stop-color="#dbedc3"/>
      <stop offset=".42" stop-color="#dbedc2"/>
      <stop offset=".43" stop-color="#daedc1"/>
      <stop offset=".43" stop-color="#daecc0"/>
      <stop offset=".43" stop-color="#d9ecbf"/>
      <stop offset=".44" stop-color="#d8ecbe"/>
      <stop offset=".44" stop-color="#d8ebbd"/>
      <stop offset=".45" stop-color="#d7ebbc"/>
      <stop offset=".45" stop-color="#d7ebbb"/>
      <stop offset=".45" stop-color="#d6ebba"/>
      <stop offset=".46" stop-color="#d6eab9"/>
      <stop offset=".46" stop-color="#d5eab8"/>
      <stop offset=".46" stop-color="#d4eab7"/>
      <stop offset=".47" stop-color="#d4e9b6"/>
      <stop offset=".47" stop-color="#d3e9b5"/>
      <stop offset=".48" stop-color="#d3e9b4"/>
      <stop offset=".48" stop-color="#d2e9b3"/>
      <stop offset=".48" stop-color="#d2e8b3"/>
      <stop offset=".49" stop-color="#d1e8b2"/>
      <stop offset=".49" stop-color="#d0e8b1"/>
      <stop offset=".5" stop-color="#d0e7b0"/>
      <stop offset=".5" stop-color="#cfe7af"/>
      <stop offset=".5" stop-color="#cfe7ae"/>
      <stop offset=".51" stop-color="#cee7ad"/>
      <stop offset=".51" stop-color="#cee6ac"/>
      <stop offset=".52" stop-color="#cde6ab"/>
      <stop offset=".52" stop-color="#cde6aa"/>
      <stop offset=".52" stop-color="#cce5a9"/>
      <stop offset=".53" stop-color="#cbe5a8"/>
      <stop offset=".53" stop-color="#cbe5a7"/>
      <stop offset=".54" stop-color="#cae5a6"/>
      <stop offset=".54" stop-color="#cae4a5"/>
      <stop offset=".54" stop-color="#c9e4a4"/>
      <stop offset=".55" stop-color="#c9e4a3"/>
      <stop offset=".55" stop-color="#c8e3a2"/>
      <stop offset=".55" stop-color="#c7e3a1"/>
      <stop offset=".56" stop-color="#c7e3a0"/>
      <stop offset=".56" stop-color="#c6e39f"/>
      <stop offset=".57" stop-color="#c6e29e"/>
      <stop offset=".57" stop-color="#c5e29e"/>
      <stop offset=".57" stop-color="#c5e29d"/>
      <stop offset=".58" stop-color="#c4e19c"/>
      <stop offset=".58" stop-color="#c3e19b"/>
      <stop offset=".59" stop-color="#c3e19a"/>
      <stop offset=".59" stop-color="#c2e199"/>
      <stop offset=".59" stop-color="#c2e098"/>
      <stop offset=".6" stop-color="#c1e097"/>
      <stop offset=".6" stop-color="#c1e096"/>
      <stop offset=".61" stop-color="#c0e095"/>
      <stop offset=".61" stop-color="#bfdf94"/>
      <stop offset=".61" stop-color="#bfdf93"/>
      <stop offset=".62" stop-color="#bedf92"/>
      <stop offset=".62" stop-color="#bede91"/>
      <stop offset=".62" stop-color="#bdde90"/>
      <stop offset=".63" stop-color="#bdde8f"/>
      <stop offset=".63" stop-color="#bcde8e"/>
      <stop offset=".64" stop-color="#bbdd8d"/>
      <stop offset=".64" stop-color="#bbdd8c"/>
      <stop offset=".64" stop-color="#badd8b"/>
      <stop offset=".65" stop-color="#badc8a"/>
      <stop offset=".65" stop-color="#b9dc89"/>
      <stop offset=".66" stop-color="#b9dc89"/>
      <stop offset=".66" stop-color="#b8dc88"/>
      <stop offset=".66" stop-color="#b8db87"/>
      <stop offset=".67" stop-color="#b7db86"/>
      <stop offset=".67" stop-color="#b6db85"/>
      <stop offset=".68" stop-color="#b6da84"/>
      <stop offset=".68" stop-color="#b5da83"/>
      <stop offset=".68" stop-color="#b5da82"/>
      <stop offset=".69" stop-color="#b4da81"/>
      <stop offset=".69" stop-color="#b4d980"/>
      <stop offset=".7" stop-color="#b3d97f"/>
      <stop offset=".7" stop-color="#b2d97e"/>
      <stop offset=".7" stop-color="#b2d87d"/>
      <stop offset=".71" stop-color="#b1d87c"/>
      <stop offset=".71" stop-color="#b1d87b"/>
      <stop offset=".71" stop-color="#b0d87a"/>
      <stop offset=".72" stop-color="#b0d779"/>
      <stop offset=".72" stop-color="#afd778"/>
      <stop offset=".73" stop-color="#aed777"/>
      <stop offset=".73" stop-color="#aed676"/>
      <stop offset=".73" stop-color="#add675"/>
      <stop offset=".74" stop-color="#add675"/>
      <stop offset=".74" stop-color="#acd674"/>
      <stop offset=".75" stop-color="#acd573"/>
      <stop offset=".75" stop-color="#abd572"/>
      <stop offset=".75" stop-color="#aad571"/>
      <stop offset=".76" stop-color="#aad470"/>
      <stop offset=".76" stop-color="#a9d46f"/>
      <stop offset=".77" stop-color="#a9d46e"/>
      <stop offset=".77" stop-color="#a8d46d"/>
      <stop offset=".77" stop-color="#a8d36c"/>
      <stop offset=".78" stop-color="#a7d36b"/>
      <stop offset=".78" stop-color="#a7d36a"/>
      <stop offset=".79" stop-color="#a6d269"/>
      <stop offset=".79" stop-color="#a5d268"/>
      <stop offset=".79" stop-color="#a5d267"/>
      <stop offset=".8" stop-color="#a4d266"/>
      <stop offset=".8" stop-color="#a4d165"/>
      <stop offset=".8" stop-color="#a3d164"/>
      <stop offset=".81" stop-color="#a3d163"/>
      <stop offset=".81" stop-color="#a2d062"/>
      <stop offset=".82" stop-color="#a1d061"/>
      <stop offset=".82" stop-color="#a1d060"/>
      <stop offset=".82" stop-color="#a0d060"/>
      <stop offset=".83" stop-color="#a0cf5f"/>
      <stop offset=".83" stop-color="#9fcf5e"/>
      <stop offset=".84" stop-color="#9fcf5d"/>
      <stop offset=".84" stop-color="#9ecf5c"/>
      <stop offset=".84" stop-color="#9dce5b"/>
      <stop offset=".85" stop-color="#9dce5a"/>
      <stop offset=".85" stop-color="#9cce59"/>
      <stop offset=".86" stop-color="#9ccd58"/>
      <stop offset=".86" stop-color="#9bcd57"/>
      <stop offset=".86" stop-color="#9bcd56"/>
      <stop offset=".87" stop-color="#9acd55"/>
      <stop offset=".87" stop-color="#99cc54"/>
      <stop offset=".88" stop-color="#99cc53"/>
      <stop offset=".88" stop-color="#98cc52"/>
      <stop offset=".88" stop-color="#98cb51"/>
      <stop offset=".89" stop-color="#97cb50"/>
      <stop offset=".89" stop-color="#97cb4f"/>
      <stop offset=".89" stop-color="#96cb4e"/>
      <stop offset=".9" stop-color="#96ca4d"/>
      <stop offset=".9" stop-color="#95ca4c"/>
      <stop offset=".91" stop-color="#94ca4b"/>
      <stop offset=".91" stop-color="#94c94b"/>
      <stop offset=".91" stop-color="#93c94a"/>
      <stop offset=".92" stop-color="#93c949"/>
      <stop offset=".92" stop-color="#92c948"/>
      <stop offset=".93" stop-color="#92c847"/>
      <stop offset=".93" stop-color="#91c846"/>
      <stop offset=".93" stop-color="#90c845"/>
      <stop offset=".94" stop-color="#90c744"/>
      <stop offset=".94" stop-color="#8fc743"/>
      <stop offset=".95" stop-color="#8fc742"/>
      <stop offset=".95" stop-color="#8ec741"/>
      <stop offset=".95" stop-color="#8ec640"/>
      <stop offset=".96" stop-color="#8dc63f"/>
      <stop offset="1" stop-color="#8dc63f"/>
    </radialGradient>
    <clipPath id="clippath-6">
      <rect fill="none" x="224.88" y="61.41" width="2.77" height="1.63"/>
    </clipPath>
    <clipPath id="clippath-7">
      <path fill="none" d="M224.93,62.99c.08-.21.18-.41.32-.59.41-.55,1.01-.84,1.61-.84.21,0,.43.04.64.12-.88.2-1.76.64-2.56,1.32Z"/>
    </clipPath>
    <clipPath id="clippath-8">
      <path fill="none" d="M224.93,62.99c.08-.21.18-.41.32-.59.41-.55,1.01-.84,1.61-.84.21,0,.43.04.64.12-.88.2-1.76.64-2.56,1.32Z"/>
    </clipPath>
    <radialGradient id="radial-gradient2" cx="-1100.89" cy="-18.53" fx="-1100.89" fy="-18.53" r="7.57" gradientTransform="translate(1039.1675 758.4607) rotate(41.5286) scale(.97 -1.0279) skewX(-3.9258)" gradientUnits="userSpaceOnUse">
      <stop offset="0" stop-color="#fff"/>
      <stop offset=".12" stop-color="#fff"/>
      <stop offset=".18" stop-color="#fefffe"/>
      <stop offset=".18" stop-color="#fefffe"/>
      <stop offset=".19" stop-color="#fefffd"/>
      <stop offset=".19" stop-color="#fdfefd"/>
      <stop offset=".2" stop-color="#fdfefc"/>
      <stop offset=".2" stop-color="#fdfefb"/>
      <stop offset=".21" stop-color="#fdfefb"/>
      <stop offset=".21" stop-color="#fdfefa"/>
      <stop offset=".22" stop-color="#fcfdf9"/>
      <stop offset=".22" stop-color="#fcfdf9"/>
      <stop offset=".23" stop-color="#fbfdf8"/>
      <stop offset=".24" stop-color="#fbfdf7"/>
      <stop offset=".24" stop-color="#fafdf7"/>
      <stop offset=".25" stop-color="#fafdf6"/>
      <stop offset=".25" stop-color="#fafdf6"/>
      <stop offset=".25" stop-color="#f9fcf5"/>
      <stop offset=".26" stop-color="#f9fcf5"/>
      <stop offset=".27" stop-color="#f8fcf4"/>
      <stop offset=".27" stop-color="#f8fcf3"/>
      <stop offset=".28" stop-color="#f7fbf2"/>
      <stop offset=".29" stop-color="#f7fbf2"/>
      <stop offset=".29" stop-color="#f7fbf1"/>
      <stop offset=".29" stop-color="#f6fbf1"/>
      <stop offset=".3" stop-color="#f6fbf0"/>
      <stop offset=".3" stop-color="#f6fbef"/>
      <stop offset=".3" stop-color="#f5faef"/>
      <stop offset=".31" stop-color="#f5faee"/>
      <stop offset=".32" stop-color="#f4faed"/>
      <stop offset=".32" stop-color="#f4faed"/>
      <stop offset=".33" stop-color="#f3f9ec"/>
      <stop offset=".33" stop-color="#f3f9eb"/>
      <stop offset=".34" stop-color="#f3f9ea"/>
      <stop offset=".35" stop-color="#f3f9ea"/>
      <stop offset=".35" stop-color="#f3f9e9"/>
      <stop offset=".36" stop-color="#f2f8e8"/>
      <stop offset=".36" stop-color="#f2f8e8"/>
      <stop offset=".37" stop-color="#f1f8e7"/>
      <stop offset=".38" stop-color="#f1f8e6"/>
      <stop offset=".38" stop-color="#f0f8e6"/>
      <stop offset=".38" stop-color="#f0f8e5"/>
      <stop offset=".39" stop-color="#eff7e4"/>
      <stop offset=".4" stop-color="#eff7e4"/>
      <stop offset=".4" stop-color="#eef7e3"/>
      <stop offset=".41" stop-color="#eef7e2"/>
      <stop offset=".41" stop-color="#edf6e1"/>
      <stop offset=".42" stop-color="#edf6e1"/>
      <stop offset=".43" stop-color="#edf6e0"/>
      <stop offset=".43" stop-color="#ecf6e0"/>
      <stop offset=".43" stop-color="#ecf6df"/>
      <stop offset=".44" stop-color="#ebf5de"/>
      <stop offset=".45" stop-color="#ebf5dd"/>
      <stop offset=".45" stop-color="#eaf5dd"/>
      <stop offset=".46" stop-color="#eaf5dc"/>
      <stop offset=".46" stop-color="#eaf4db"/>
      <stop offset=".47" stop-color="#eaf4db"/>
      <stop offset=".48" stop-color="#eaf4da"/>
      <stop offset=".48" stop-color="#e9f4d9"/>
      <stop offset=".48" stop-color="#e9f4d9"/>
      <stop offset=".49" stop-color="#e8f3d8"/>
      <stop offset=".5" stop-color="#e8f3d7"/>
      <stop offset=".5" stop-color="#e7f3d7"/>
      <stop offset=".51" stop-color="#e7f3d6"/>
      <stop offset=".51" stop-color="#e7f3d6"/>
      <stop offset=".52" stop-color="#e6f3d5"/>
      <stop offset=".52" stop-color="#e6f3d5"/>
      <stop offset=".52" stop-color="#e6f3d5"/>
      <stop offset=".53" stop-color="#e5f2d4"/>
      <stop offset=".53" stop-color="#e5f2d3"/>
      <stop offset=".54" stop-color="#e5f2d3"/>
      <stop offset=".55" stop-color="#e4f2d2"/>
      <stop offset=".55" stop-color="#e4f2d1"/>
      <stop offset=".55" stop-color="#e3f1d1"/>
      <stop offset=".56" stop-color="#e3f1d0"/>
      <stop offset=".56" stop-color="#e3f1cf"/>
      <stop offset=".57" stop-color="#e2f1cf"/>
      <stop offset=".57" stop-color="#e2f1ce"/>
      <stop offset=".57" stop-color="#e2f1ce"/>
      <stop offset=".58" stop-color="#e1f0cd"/>
      <stop offset=".58" stop-color="#e1f0cd"/>
      <stop offset=".59" stop-color="#e1f0cd"/>
      <stop offset=".59" stop-color="#e0f0cc"/>
      <stop offset=".59" stop-color="#e0f0cb"/>
      <stop offset=".6" stop-color="#e0f0cb"/>
      <stop offset=".61" stop-color="#e0efca"/>
      <stop offset=".61" stop-color="#e0efc9"/>
      <stop offset=".62" stop-color="#dfefc9"/>
      <stop offset=".62" stop-color="#dfefc8"/>
      <stop offset=".62" stop-color="#dfefc8"/>
      <stop offset=".63" stop-color="#deefc7"/>
      <stop offset=".64" stop-color="#deefc6"/>
      <stop offset=".64" stop-color="#ddeec6"/>
      <stop offset=".64" stop-color="#ddeec5"/>
      <stop offset=".65" stop-color="#dceec4"/>
      <stop offset=".66" stop-color="#dceec4"/>
      <stop offset=".66" stop-color="#dceec3"/>
      <stop offset=".67" stop-color="#dbedc2"/>
      <stop offset=".68" stop-color="#daedc1"/>
      <stop offset=".68" stop-color="#daedc1"/>
      <stop offset=".69" stop-color="#daedc0"/>
      <stop offset=".69" stop-color="#d9ecc0"/>
      <stop offset=".7" stop-color="#d9ecbf"/>
      <stop offset=".7" stop-color="#d8ecbe"/>
      <stop offset=".71" stop-color="#d8ecbd"/>
      <stop offset=".71" stop-color="#d7ebbd"/>
      <stop offset=".72" stop-color="#d7ebbc"/>
      <stop offset=".73" stop-color="#d7ebbb"/>
      <stop offset=".73" stop-color="#d7ebbb"/>
      <stop offset=".74" stop-color="#d7ebba"/>
      <stop offset=".74" stop-color="#d6eab9"/>
      <stop offset=".75" stop-color="#d6eab9"/>
      <stop offset=".75" stop-color="#d5eab8"/>
      <stop offset=".76" stop-color="#d5eab8"/>
      <stop offset=".76" stop-color="#d5eab7"/>
      <stop offset=".77" stop-color="#d4eab7"/>
      <stop offset=".77" stop-color="#d4eab6"/>
      <stop offset=".77" stop-color="#d3e9b5"/>
      <stop offset=".79" stop-color="#d3e9b5"/>
      <stop offset=".79" stop-color="#d2e9b4"/>
      <stop offset=".79" stop-color="#d2e9b3"/>
      <stop offset=".8" stop-color="#d2e9b3"/>
      <stop offset=".81" stop-color="#d1e8b2"/>
      <stop offset=".81" stop-color="#d1e8b1"/>
      <stop offset=".82" stop-color="#d0e8b1"/>
      <stop offset=".82" stop-color="#d0e8b0"/>
      <stop offset=".82" stop-color="#d0e8af"/>
      <stop offset=".83" stop-color="#cfe7af"/>
      <stop offset=".83" stop-color="#cfe7ae"/>
      <stop offset=".84" stop-color="#cee7ad"/>
      <stop offset=".85" stop-color="#cee7ad"/>
      <stop offset=".85" stop-color="#cde6ac"/>
      <stop offset=".86" stop-color="#cde6ab"/>
      <stop offset=".86" stop-color="#cde6aa"/>
      <stop offset=".87" stop-color="#cde6aa"/>
      <stop offset=".88" stop-color="#cde6a9"/>
      <stop offset=".88" stop-color="#cce5a9"/>
      <stop offset=".88" stop-color="#cce5a8"/>
      <stop offset=".89" stop-color="#cce5a8"/>
      <stop offset=".89" stop-color="#cbe5a7"/>
      <stop offset=".89" stop-color="#cbe5a7"/>
      <stop offset=".9" stop-color="#cbe5a6"/>
      <stop offset=".9" stop-color="#cae5a6"/>
      <stop offset=".91" stop-color="#cae5a5"/>
      <stop offset=".91" stop-color="#cae5a5"/>
      <stop offset=".92" stop-color="#c9e4a4"/>
      <stop offset=".93" stop-color="#c9e4a3"/>
      <stop offset=".93" stop-color="#c8e4a2"/>
      <stop offset=".94" stop-color="#c7e3a1"/>
      <stop offset=".95" stop-color="#c7e3a1"/>
      <stop offset=".95" stop-color="#c7e3a0"/>
      <stop offset=".95" stop-color="#c6e39f"/>
      <stop offset="1" stop-color="#c6e39f"/>
    </radialGradient>
    <clipPath id="clippath-9">
      <rect fill="none" x="248.64" y="69.05" width="17.41" height="22.29"/>
    </clipPath>
    <clipPath id="clippath-10">
      <path fill="none" d="M255.95,91.3c-.59,0-1.19-.08-1.77-.25-4.41-1.29-6.58-7.17-4.84-13.14,1.51-5.18,5.47-8.72,9.38-8.72.59,0,1.18.08,1.77.25,4.41,1.29,6.58,7.17,4.85,13.14-1.51,5.18-5.47,8.72-9.38,8.72M258.23,72.75c-3.09,0-6.17,3-7.21,7.24-1.17,4.75.67,9.26,4.08,10.07.36.09.72.13,1.09.13,3.09,0,6.17-3,7.21-7.25,1.17-4.75-.66-9.26-4.08-10.07-.36-.09-.72-.13-1.09-.13Z"/>
    </clipPath>
    <clipPath id="clippath-11">
      <path fill="none" d="M255.95,91.3c-.59,0-1.19-.08-1.77-.25-4.41-1.29-6.58-7.17-4.84-13.14,1.51-5.18,5.47-8.72,9.38-8.72.59,0,1.18.08,1.77.25,4.41,1.29,6.58,7.17,4.85,13.14-1.51,5.18-5.47,8.72-9.38,8.72M258.23,72.75c-3.09,0-6.17,3-7.21,7.24-1.17,4.75.67,9.26,4.08,10.07.36.09.72.13,1.09.13,3.09,0,6.17-3,7.21-7.25,1.17-4.75-.66-9.26-4.08-10.07-.36-.09-.72-.13-1.09-.13Z"/>
    </clipPath>
    <radialGradient id="radial-gradient3" cx="1291.99" cy="473.44" fx="1291.99" fy="473.44" r="9.82" gradientTransform="translate(1317.0009 900.2279) rotate(-163.7179) scale(.965 1.035) skewX(.0363)" xlink:href="#radial-gradient"/>
    <clipPath id="clippath-12">
      <rect fill="none" x="250.59" y="72.63" width="13.18" height="17.57"/>
    </clipPath>
    <clipPath id="clippath-13">
      <path fill="none" d="M256.19,90.19c-.36,0-.73-.04-1.09-.13-3.41-.82-5.25-5.33-4.08-10.07,1.04-4.24,4.12-7.24,7.21-7.24.36,0,.73.04,1.09.13,3.42.81,5.25,5.33,4.08,10.07-1.04,4.25-4.12,7.25-7.21,7.25M252.61,80.18c-.22.46-.41.95-.54,1.48-.84,3.24.51,6.38,2.99,7.01.29.07.59.11.89.11,2.21,0,4.4-1.99,5.13-4.84.83-3.24-.51-6.38-3-7.01-.3-.07-.59-.11-.89-.11-.56,0-1.11.13-1.64.36-.23-.22-.51-.38-.84-.47-.15-.04-.31-.06-.46-.06-.91,0-1.76.66-2.02,1.64-.18.69-.02,1.39.37,1.89Z"/>
    </clipPath>
    <clipPath id="clippath-14">
      <path fill="none" d="M256.19,90.19c-.36,0-.73-.04-1.09-.13-3.41-.82-5.25-5.33-4.08-10.07,1.04-4.24,4.12-7.24,7.21-7.24.36,0,.73.04,1.09.13,3.42.81,5.25,5.33,4.08,10.07-1.04,4.25-4.12,7.25-7.21,7.25M252.61,80.18c-.22.46-.41.95-.54,1.48-.84,3.24.51,6.38,2.99,7.01.29.07.59.11.89.11,2.21,0,4.4-1.99,5.13-4.84.83-3.24-.51-6.38-3-7.01-.3-.07-.59-.11-.89-.11-.56,0-1.11.13-1.64.36-.23-.22-.51-.38-.84-.47-.15-.04-.31-.06-.46-.06-.91,0-1.76.66-2.02,1.64-.18.69-.02,1.39.37,1.89Z"/>
    </clipPath>
    <radialGradient id="radial-gradient4" cx="-1275.5" cy="563.3" fx="-1275.5" fy="563.3" r="7.64" gradientTransform="translate(1331.427 911.6426) rotate(12.2749) scale(.9653 -1.0346) skewX(.5379)" xlink:href="#radial-gradient1"/>
    <clipPath id="clippath-15">
      <rect fill="none" x="252.06" y="76.54" width="3.58" height="3.74"/>
    </clipPath>
    <clipPath id="clippath-16">
      <path fill="none" d="M252.61,80.18c-.39-.5-.55-1.19-.37-1.89.25-.98,1.1-1.64,2.02-1.64.15,0,.3.02.46.06.33.08.61.25.84.47-1.19.53-2.25,1.59-2.94,3.01Z"/>
    </clipPath>
    <clipPath id="clippath-17">
      <path fill="none" d="M252.61,80.18c-.39-.5-.55-1.19-.37-1.89.25-.98,1.1-1.64,2.02-1.64.15,0,.3.02.46.06.33.08.61.25.84.47-1.19.53-2.25,1.59-2.94,3.01Z"/>
    </clipPath>
    <radialGradient id="radial-gradient5" cx="-1275.51" cy="563.29" fx="-1275.51" fy="563.29" r="7.64" gradientTransform="translate(1331.427 911.6426) rotate(12.2749) scale(.9653 -1.0346) skewX(.5379)" xlink:href="#radial-gradient2"/>
  </defs>
  <path fill="#c7c8c9" d="M183.88,165.97c3.44,9.34,11.8,39.09,9.28,45.6,1.11-1.35,1.66-2.58,1.66-2.58-.37,2.33-2.03,8.11-1.05,8.73.98.62,12.97,4.73,18.81,3.26,5.84-1.47,7.8-6.33,7.8-6.33-3.07-4.24-12.6-9.53-13.52-10.88-.92-1.35-7.74-33.13-4.73-41.98-7.8,1.48-18.25,4.18-18.25,4.18"/>
  <path fill="#d9dadb" d="M191.8,173.6c2.15,10.4,5.38,19.73,5.74,29.78.37,9,5.06,14.51,11.42,17.9,1.33.04,2.57-.04,3.61-.3,5.84-1.47,7.8-6.33,7.8-6.33-3.07-4.24-12.6-9.53-13.52-10.88-.92-1.35-7.74-33.13-4.73-41.98-3.67.69-7.92,1.66-11.39,2.48.21,1.07.44,2.15.71,3.22.72,1.79,0,3.95.36,6.1"/>
  <path fill="#fff" d="M193.28,173.93c2.15,10.4,5.59,19.42,5.95,29.46.37,9,3.37,14.5,9.73,17.89,1.33.04,2.57-.04,3.61-.3,5.84-1.47,7.8-6.33,7.8-6.33-3.07-4.24-12.6-9.53-13.52-10.88-.92-1.35-7.74-33.13-4.73-41.98-3.67.69-7.92,1.66-11.39,2.48.21,1.07.44,2.15.71,3.22.72,1.79,1.48,4.27,1.84,6.42"/>
  <path fill="#706f6f" d="M195.2,207.71l-.21,1.32c-.1.62-.29,1.49-.49,2.4-.47,2.15-1.26,5.76-.64,6.14.76.48,9.48,3.55,15.72,3.55,1.14,0,2.13-.11,2.94-.31,5.24-1.32,7.34-5.47,7.64-6.13-1.96-2.64-6.41-5.69-9.66-7.92-2-1.37-3.44-2.36-3.8-2.88-.52-.76-2.46-9.24-3.87-18.25-1.27-8.11-2.45-18.7-.98-23.6-7.1,1.36-16.31,3.7-17.75,4.07,3.28,9,11.06,36.61,9.47,44.62.71-1,1.07-1.79,1.07-1.8l.55-1.22ZM209.59,221.48c-6.31,0-15.14-3.12-15.91-3.6-.77-.48-.29-3.01.48-6.53.1-.44.19-.87.27-1.26-.27.45-.65,1.01-1.13,1.6l-.71.87.4-1.05c2.51-6.49-5.91-36.33-9.28-45.47l-.07-.19.19-.05c.1-.03,10.54-2.72,18.26-4.18l.3-.06-.1.29c-3,8.81,3.95,40.71,4.71,41.82.32.47,1.89,1.54,3.71,2.79,3.31,2.27,7.85,5.38,9.81,8.08l.06.08-.04.09c-.02.05-2.07,4.96-7.93,6.44-.85.21-1.87.32-3.03.32"/>
  <path fill="#351204" d="M211.27,207.05c-1.81,2.72-7.12,5.17-11.16,2.56.66,1.11-.98,3.69-.98,3.69.21-.94-1.6-3.61-1.6-3.61-.37,1.35-1.56,3.07-1.39,3.32-.58-.58-1.37-1.2-1.82-1.54-.57,2.6-1.26,5.8-.54,6.25.98.62,12.97,4.73,18.81,3.26,5.84-1.47,7.8-6.33,7.8-6.33-1.82-2.51-5.9-5.38-9.12-7.6"/>
  <path fill="#42170b" d="M208.97,221.29c1.33.04,2.57-.04,3.61-.3,5.84-1.47,7.8-6.33,7.8-6.33-1.82-2.51-5.9-5.38-9.12-7.6-1.81,2.72-7.12,5.17-11.16,2.56.38.64,0,1.77-.4,2.61,2.03,4.05,6.46,10.07,9.27,9.07"/>
  <path fill="#4c1c0c" d="M208.97,221.29c1.33.04,2.57-.04,3.61-.3,5.84-1.47,7.8-6.33,7.8-6.33-1.82-2.51-5.9-5.38-9.12-7.6-1.81,2.72-7.12,5.17-11.16,2.56.38.64,4.92,9.58,8.86,11.67"/>
  <path fill="#633529" d="M209.32,208.96c-.62.43-1.32.82-2.07,1.11,3.1,2.94,6.16,6.07,8.44,9.64.6-.35,1.13-.73,1.61-1.13-2.08-3.72-4.46-7.16-7.98-9.63"/>
  <path fill="#1e0901" d="M194.43,211.79c-.47,2.14-1.15,5.41-.56,5.79.76.48,9.48,3.55,15.72,3.55h0c1.13,0,2.13-.11,2.94-.31,5.24-1.32,7.34-5.47,7.64-6.13-1.76-2.37-5.48-5.04-8.87-7.37-1.3,1.81-4.19,3.6-7.34,3.6-1.29,0-2.48-.3-3.55-.9.17,1.29-1.09,3.29-1.15,3.39l-.54.85.21-.99c.14-.62-.8-2.27-1.37-3.15-.21.61-.55,1.26-.82,1.79-.21.41-.47.93-.47,1.05,0,0,0-.02-.02-.04l-.27.23c-.49-.49-1.13-1.01-1.57-1.35ZM209.59,221.48h0c-6.31,0-15.14-3.12-15.91-3.6-.77-.48-.3-2.97.46-6.44l.06-.27.22.17c.37.28,1.03.79,1.58,1.31.08-.21.22-.49.43-.91.32-.63.72-1.42.91-2.09l.1-.38.22.32c.16.23,1.31,1.96,1.58,3.11.48-.88,1.1-2.33.69-3.01l-.39-.66.64.41c1.12.72,2.39,1.09,3.77,1.09,3.09,0,5.99-1.85,7.15-3.59l.1-.15.15.1c3.49,2.4,7.37,5.16,9.16,7.64l.06.08-.04.09c-.02.05-2.07,4.96-7.93,6.44-.85.21-1.87.32-3.03.32"/>
  <path fill="#c7c8c9" d="M143.92,82.2c-6.45-3.88-25.26,20.9-40.14,26.91-14.88,6.01-13.66-11.71-12.39-15.19,2.55-6.99,11.1-11.21,11.69-14.89.59-3.68-5.67-6.34-6.17-6.8,1.92,2.41,2.26,3.97,2.26,3.97-2.95-1.25-7.76-6.9-6.37-8.71-2.32,1.68-8.25,11.45-4.74,13.34-7.63-.85-2.95-7.08-2.95-7.08-3.46,2.61-7.31,9.39-3.9,12.47,3.41,3.08,5.07,5.7,5.22,14.94.06,3.79,3.44,18.22,14.57,14.36,11.13-3.86,37.16-28.5,45.37-27.45-.35-2.77-2.44-5.87-2.44-5.87"/>
  <path fill="#d9dadb" d="M143.92,82.2c-6.45-3.88-25.26,20.9-40.14,26.91-14.88,6.01-13.66-11.71-12.39-15.19,2.55-6.99,11.1-11.21,11.69-14.89.59-3.68-5.67-6.34-6.17-6.8,1.92,2.41,2.26,3.97,2.26,3.97-2.95-1.25-7.76-6.9-6.37-8.71-2.32,1.68-8.25,11.45-4.74,13.34-7.63-.85-2.95-7.08-2.95-7.08-3.46,2.61-7.31,9.39-3.9,12.47,3.41,3.08,7.21,3.85,7.36,13.09.06,3.79,1.61,17.84,12.74,13.98,11.13-3.86,36.85-26.28,45.07-25.23-.35-2.77-2.44-5.87-2.44-5.87"/>
  <path fill="#fff" d="M143.92,82.2c-6.45-3.88-25.26,20.9-40.14,26.91-14.88,6.01-13.66-11.71-12.39-15.19,2.55-6.99,11.1-11.21,11.69-14.89.59-3.68-5.67-6.34-6.17-6.8,1.92,2.41,2.26,3.97,2.26,3.97-2.95-1.25-7.76-6.9-6.37-8.71-2.32,1.68-8.25,11.45-4.74,13.34-7.63-.85-2.95-7.08-2.95-7.08-3.46,2.61-7.31,9.39-3.9,12.47,3.41,3.08,7.81,3.67,7.96,12.91.06,3.79,1.18,17.12,12.31,13.27,11.13-3.86,35.43-25.54,43.65-24.5-.35-2.77-1.2-5.7-1.2-5.7"/>
  <path fill="#706f6f" d="M84.34,74.64c-2.1,1.98-4.15,5.32-4.27,8.11-.06,1.41.36,2.54,1.26,3.35,3.6,3.26,5.13,6.07,5.28,15.06.06,3.8,2.84,14.84,10.82,14.84,1.11,0,2.29-.22,3.51-.64,4.85-1.68,12.77-7.49,20.42-13.12,9.84-7.23,20.02-14.7,24.8-14.37-.39-2.49-2.14-5.2-2.36-5.53-.42-.24-.91-.36-1.45-.36-3.72,0-9.82,5.36-16.88,11.58-6.89,6.06-14.7,12.94-21.62,15.73-2.05.83-3.9,1.25-5.51,1.25h0c-2.47,0-4.4-.97-5.74-2.89-2.91-4.16-2.15-11.63-1.37-13.77,1.41-3.87,4.56-6.82,7.35-9.43,2.19-2.05,4.08-3.82,4.33-5.43.46-2.88-3.52-5.15-5.29-6.14,1.43,1.99,1.72,3.24,1.73,3.3l.08.34-.32-.14c-2.47-1.05-6-4.95-6.62-7.33-.09-.35-.12-.67-.09-.94-1.94,1.94-5.44,7.59-5.22,10.81.06.85.39,1.44.98,1.76l.82.44-.92-.1c-2.3-.26-3.74-1.03-4.29-2.29-.6-1.4.04-3.05.59-4.08ZM97.42,116.35c-8.24,0-11.11-11.29-11.18-15.19-.14-8.86-1.64-11.62-5.16-14.8-.98-.89-1.44-2.11-1.38-3.63.15-3.33,2.81-7.25,5.29-9.12l1.01-.76-.76,1.02s-2.03,2.74-1.17,4.72c.44,1.02,1.56,1.68,3.34,1.99-.36-.4-.57-.94-.61-1.63-.25-3.65,4.11-10.29,5.89-11.59l1.01-.73-.76.99c-.23.3-.27.75-.12,1.34.57,2.18,3.69,5.7,6.05,6.92-.22-.59-.78-1.85-2.11-3.53l.26-.24c.07.07.36.23.7.42,1.8,1.01,6.03,3.39,5.52,6.54-.28,1.73-2.21,3.53-4.44,5.63-2.75,2.58-5.87,5.5-7.25,9.29-.76,2.09-1.51,9.39,1.33,13.44,1.27,1.81,3.1,2.73,5.45,2.73h0c1.56,0,3.37-.41,5.38-1.22,6.86-2.77,14.64-9.62,21.51-15.67,7.11-6.26,13.26-11.67,17.12-11.67.63,0,1.19.15,1.67.44l.06.05c.09.13,2.13,3.16,2.47,5.95l.03.23-.23-.03c-.16-.02-.33-.03-.51-.03-4.78,0-14.69,7.27-24.27,14.31-8.03,5.9-15.61,11.47-20.52,13.17-1.26.44-2.48.66-3.63.66"/>
  <path fill="#2b2020" d="M103.07,79.03c.59-3.68-5.67-6.34-6.17-6.8,1.92,2.41,2.26,3.97,2.26,3.97-2.95-1.25-7.76-6.9-6.37-8.71-2.32,1.68-8.25,11.45-4.74,13.34-7.63-.85-2.95-7.08-2.95-7.08-3.46,2.61-7.31,9.39-3.9,12.47,2.23,2.02,3.71,3.83,4.51,7.43,2.61,10.63,5.08,3.34,6.39-1.34,3.14-6.04,10.43-9.89,10.97-13.28"/>
  <path fill="#332a2a" d="M90.41,84.12v3.95c1.08-1.08,1.44-2.87,2.87-3.95,0,1.8-.36,3.23-.72,5.02.75-3.24,3.75-4.75,6.95-5.37,1.85-1.75,3.32-3.29,3.55-4.74.59-3.68-5.67-6.34-6.17-6.8,1.92,2.41,2.26,3.97,2.26,3.97-2.95-1.25-7.76-6.9-6.37-8.71-2.32,1.68-8.25,11.45-4.74,13.34-7.63-.85-2.95-7.08-2.95-7.08-1.65,1.24-3.38,3.43-4.38,5.71.28,4.32,2.07,8.04,5.38,10.76,0,.36,0-1.44.36-2.15.21,1.37.27,1.71.63,2.06"/>
  <path fill="#3d3232" d="M86.11,88.78c.72-1.79.36-3.23,1.08-5.02v3.23c.72-2.51,3.23-3.59,4.31-5.74,0,1.8-.72,3.59-.36,5.38.72-1.8,2.15-3.59,2.87-5.74.36,2.51-.72,4.31-1.43,6.46,1.62-3.48,4.9-4.26,8.27-4.86,1.2-1.24,2.07-2.37,2.24-3.46.59-3.68-5.67-6.34-6.17-6.8,1.92,2.41,2.26,3.97,2.26,3.97-2.95-1.25-7.76-6.9-6.37-8.71-2.32,1.68-8.25,11.45-4.74,13.34-7.63-.85-2.95-7.08-2.95-7.08-1.16.88-2.37,2.22-3.33,3.74-.88,3.88,3.19,7.59,4.33,11.29"/>
  <path fill="#595050" d="M96.9,72.23c1.92,2.41,2.26,3.97,2.26,3.97-2.95-1.25-7.76-6.9-6.37-8.71-.23.16-.48.4-.76.7-1.42,5.11,3.4,9.97,8.79,8.38,0,0-.36-.72-1.08-1.08h1.08c1.65,2.02,1.61,4.22.75,6.19.81-.93,1.37-1.81,1.51-2.66.59-3.68-5.67-6.34-6.17-6.8"/>
  <path d="M84.34,74.64c-2.1,1.98-4.15,5.32-4.27,8.11-.06,1.41.36,2.54,1.26,3.35,2.35,2.12,3.77,3.95,4.56,7.52,1.08,4.41,2.05,5.34,2.67,5.34,1,0,2.13-2.25,3.37-6.69v-.03c1.63-3.1,4.29-5.6,6.63-7.8,2.19-2.05,4.08-3.82,4.33-5.43.46-2.88-3.52-5.15-5.29-6.14,1.43,1.99,1.72,3.24,1.73,3.3l.08.34-.32-.14c-2.47-1.05-6-4.95-6.62-7.33-.09-.35-.12-.67-.09-.94-1.94,1.94-5.44,7.59-5.22,10.81.06.85.39,1.44.98,1.76l.82.44-.92-.1c-2.3-.26-3.74-1.03-4.29-2.29-.6-1.4.04-3.05.59-4.08ZM88.56,99.32c-1.11,0-2.1-1.84-3.02-5.62-.77-3.48-2.16-5.27-4.46-7.34-.98-.89-1.44-2.11-1.38-3.63.15-3.33,2.81-7.25,5.29-9.12l1.01-.76-.76,1.02s-2.03,2.74-1.17,4.72c.44,1.02,1.56,1.68,3.34,1.99-.36-.4-.57-.94-.61-1.63-.25-3.65,4.11-10.29,5.89-11.59l1.01-.73-.76.99c-.23.3-.27.75-.12,1.34.57,2.18,3.69,5.7,6.05,6.92-.22-.59-.78-1.85-2.11-3.53l.26-.24c.07.07.36.23.7.42,1.8,1.01,6.03,3.39,5.52,6.54-.28,1.73-2.21,3.54-4.44,5.63-2.32,2.18-4.95,4.64-6.54,7.68-1.34,4.8-2.48,6.94-3.71,6.94"/>
  <path fill="#d9dadb" d="M140.17,161.49c-3.44,9.34-11.8,39.09-9.28,45.6-1.11-1.35-1.66-2.58-1.66-2.58.37,2.33,2.03,8.11,1.05,8.73-.98.61-12.97,4.73-18.81,3.26-5.84-1.48-7.81-6.33-7.81-6.33,3.07-4.24,12.6-9.53,13.52-10.88.92-1.35,7.74-33.13,4.73-41.98,7.81,1.48,18.25,4.18,18.25,4.18"/>
  <path fill="#fff" d="M132.24,169.12c-2.15,10.4-5.38,19.73-5.74,29.78-.37,9-5.06,14.51-11.42,17.9-1.33.04-2.57-.04-3.61-.3-5.84-1.48-7.81-6.33-7.81-6.33,3.07-4.24,12.6-9.53,13.52-10.88.92-1.35,7.74-33.13,4.73-41.98,3.67.69,7.92,1.66,11.39,2.48-.21,1.07-.44,2.15-.71,3.22-.72,1.79,0,3.95-.36,6.1"/>
  <path fill="#706f6f" d="M129.39,204.44s.37.8,1.07,1.8c-1.59-8.01,6.18-35.62,9.47-44.62-1.44-.37-10.66-2.71-17.75-4.07,1.48,4.9.29,15.49-.98,23.6-1.41,9.01-3.35,17.49-3.87,18.25-.36.52-1.8,1.51-3.8,2.88-3.26,2.23-7.7,5.28-9.66,7.92.31.66,2.4,4.81,7.64,6.13.82.21,1.81.31,2.94.31,6.24,0,14.96-3.07,15.72-3.55.62-.39-.17-3.99-.64-6.14-.2-.92-.39-1.78-.49-2.4l-.21-1.32.55,1.22ZM111.42,216.67c-5.86-1.48-7.91-6.39-7.93-6.44l-.04-.09.06-.08c1.96-2.71,6.5-5.81,9.81-8.08,1.82-1.24,3.39-2.32,3.71-2.79.76-1.11,7.71-33.01,4.71-41.82l-.1-.29.3.06c7.72,1.46,18.16,4.15,18.27,4.18l.19.05-.07.19c-3.37,9.15-11.79,38.98-9.28,45.48l.41,1.05-.71-.87c-.48-.59-.86-1.15-1.13-1.6.08.39.17.82.27,1.26.77,3.52,1.25,6.04.48,6.52-.77.49-9.61,3.6-15.91,3.6-1.17,0-2.19-.11-3.03-.32"/>
  <path fill="#351204" d="M112.78,202.57c1.81,2.72,7.12,5.17,11.17,2.56-.66,1.1.98,3.69.98,3.69-.2-.94,1.6-3.61,1.6-3.61.37,1.35,1.56,3.07,1.39,3.32.58-.58,1.37-1.2,1.82-1.54.57,2.6,1.26,5.8.54,6.25-.98.61-12.97,4.73-18.81,3.26-5.84-1.48-7.81-6.33-7.81-6.33,1.82-2.51,5.9-5.39,9.12-7.6"/>
  <path fill="#42170b" d="M126.52,205.21s-1.8,2.66-1.6,3.61c0,0-1.64-2.58-.98-3.69-4.05,2.61-9.35.16-11.17-2.56-3.22,2.21-7.3,5.09-9.12,7.6,0,0,1.97,4.85,7.81,6.33,2.68.68,6.64.18,10.25-.62,2.35-3.3,3.89-6.69,4.84-10.55-.01-.04-.02-.07-.03-.11"/>
  <path fill="#4c1c0c" d="M115.08,216.8c-1.33.04-2.57-.04-3.61-.3-5.84-1.48-7.81-6.33-7.81-6.33,1.82-2.51,5.9-5.39,9.12-7.6,1.81,2.72,7.12,5.17,11.17,2.56-.38.64,0,1.77.4,2.61-2.03,4.05-5.32,6.97-9.27,9.07"/>
  <path fill="#633529" d="M114.72,204.48c.62.43,1.32.82,2.07,1.11-3.1,2.94-6.16,6.07-8.44,9.64-.6-.35-1.13-.73-1.61-1.13,2.08-3.72,4.46-7.16,7.98-9.63"/>
  <path fill="#1e0901" d="M128.04,208.65l-.28-.23s-.01.04-.01.04c0-.12-.25-.64-.47-1.05-.27-.54-.61-1.18-.82-1.79-.56.88-1.5,2.53-1.36,3.15l.21.99-.54-.85c-.06-.1-1.32-2.1-1.15-3.39-1.07.6-2.26.9-3.55.9-3.16,0-6.05-1.79-7.34-3.6-3.39,2.33-7.1,5-8.86,7.37.31.66,2.4,4.81,7.64,6.13.82.21,1.81.31,2.94.31h0c6.24,0,14.96-3.07,15.72-3.55.59-.37-.09-3.65-.56-5.79-.44.34-1.08.86-1.57,1.35ZM111.42,216.67c-5.86-1.48-7.91-6.39-7.93-6.44l-.04-.09.06-.08c1.79-2.48,5.67-5.24,9.16-7.64l.15-.1.1.15c1.16,1.74,4.06,3.59,7.15,3.59,1.39,0,2.65-.37,3.77-1.09l.64-.41-.39.66c-.4.68.21,2.12.69,3.01.27-1.15,1.43-2.89,1.59-3.12l.22-.32.1.38c.18.68.59,1.46.91,2.09.21.41.35.7.43.9.56-.52,1.21-1.03,1.58-1.31l.22-.17.06.28c.76,3.47,1.23,5.96.46,6.44-.77.49-9.61,3.6-15.91,3.6h0c-1.17,0-2.19-.11-3.03-.32"/>
  <path fill="#ff8082" d="M185.47,198.66c0,7.76-9.16,14.05-20.45,14.05s-20.45-6.29-20.45-14.05,9.16-14.05,20.45-14.05,20.45,6.29,20.45,14.05"/>
  <path fill="#f9a2a7" d="M151.05,193.9c-.53-1.58-1.57-2.56-2.84-3.23-2.29,2.27-3.63,5.02-3.63,7.99,0,4.77,3.46,8.98,8.75,11.52.96-5.13-1.02-10.97-2.28-16.29"/>
  <path fill="#f9cdd1" d="M147.82,194.98c-.74,0-1.49-.29-2.28-.57-.62,1.34-.96,2.77-.96,4.26,0,5.13,4,9.61,9.97,12.07-5.7-4.02-10.65-9.39-6.73-15.76"/>
  <path fill="#d15056" d="M165.02,184.79c-11.18,0-20.27,6.22-20.27,13.87s9.09,13.87,20.27,13.87,20.27-6.22,20.27-13.87-9.09-13.87-20.27-13.87ZM165.02,212.9c-11.37,0-20.63-6.38-20.63-14.23s9.25-14.23,20.63-14.23,20.63,6.39,20.63,14.23-9.25,14.23-20.63,14.23"/>
  <path fill="#ff8082" d="M150.48,202.88c-2.5,3.55-7.23,5.52-5.25,7.72,1.97,2.2,5.83-6.65,5.83-6.65l-.57-1.07"/>
  <path fill="#f9a2a7" d="M150.48,202.88c-2.5,3.55-7.36,5.65-5.25,7.72.52.51,5.83-6.65,5.83-6.65l-.57-1.07"/>
  <path fill="#f9cdd1" d="M145.23,210.6s.05.05.08.07c.19-2.58,3.66-4.84,5-7.55-2.53,3.4-7.01,5.33-5.08,7.48"/>
  <path fill="#d15056" d="M150.49,204.75c-1.07,2.24-3.16,6.02-4.55,6.02-.22,0-.41-.09-.58-.29-.52-.58-.56-1.16-.12-1.87.43-.69,1.23-1.41,2.17-2.25.91-.82,1.93-1.73,2.78-2.8,0-.13-.84.45-1.36.98-.55.56-1.12,1.07-1.66,1.55-.96.86-1.78,1.6-2.23,2.33-.52.84-.47,1.6.16,2.3.24.27.53.41.85.41,1.05,0,2.29-1.61,3.31-3.3.59-.98,1.3-2.95,1.24-3.08"/>
  <path fill="#ff8082" d="M181.34,201.73c1.74,3.98.97,9.04,3.87,8.49,2.9-.55-2.66-8.43-2.66-8.43l-1.21-.06"/>
  <path fill="#f9a2a7" d="M181.34,201.73c1.74,3.98.97,9.04,3.87,8.49,2.9-.55-2.66-8.43-2.66-8.43l-1.21-.06"/>
  <path fill="#f9cdd1" d="M182.55,201.79h-.03c1.59,2.55,2.55,5.4,2.99,8.34,2.19-1.05-2.96-8.34-2.96-8.34"/>
  <path fill="#d15056" d="M181.62,201.92c.57,1.4.85,2.9,1.1,4.24.41,2.19.74,3.93,2.08,3.93h0c.12,0,.24-.01.38-.04.31-.06.51-.21.61-.46.6-1.49-2.16-5.94-3.34-7.62l-.84-.04ZM184.8,210.44h0c-1.64,0-2.01-1.96-2.43-4.22-.26-1.4-.56-2.99-1.19-4.43l-.12-.27,1.59.08.05.07c.17.25,4.24,6.03,3.43,8.03-.15.37-.44.6-.87.68-.16.03-.31.04-.44.04"/>
  <path fill="#c7c8c9" d="M173.51,76.36c-10.14,4.32-22.62-10.49-33.43-4.92-10.82,5.57-8.36,27.86-13.6,33.1-5.24,5.24-26.63,25.24-22.21,55.48,4.42,30.24,29.97,42.19,53.84,42.86,23.87.67,49.99-24.91,53.1-41.63,3.11-16.72,1.64-36.87-8.19-51.13-9.83-14.26-11.47-32.12-14.75-34.58-3.28-2.46-7.05-2.46-14.75.82"/>
  <path fill="#d9dadb" d="M173.51,76.36c-10.14,4.32-22.62-10.49-33.43-4.92-10.82,5.57-5.15,27.68-10.4,32.92-5.24,5.24-28.5,25.9-24.08,56.14,4.43,30.24,28.71,29.23,52.58,29.9,23.86.67,49.31-15.3,52.42-32.02,3.11-16.72,2.24-34-7.59-48.26-9.83-14.26-11.47-32.12-14.75-34.58-3.28-2.46-7.05-2.46-14.75.82"/>
  <path fill="#fff" d="M203.01,110.12c-9.83-14.26-11.47-32.12-14.75-34.58-3.28-2.46-7.05-2.46-14.75.82-10.14,4.32-22.62-10.49-33.43-4.92-10.82,5.57-3.16,30.44-8.4,35.68-5.24,5.24-29.35,21.5-24.93,51.74,4.09,27.97,24.33,30.74,46.47,31.54-7.26-1.78-12.41-6.25-17.24-13.01-11.74-16.98-7.83-34.31-1.47-51.01.02-1.4.03-2.81.03-4.24,0,1.43-.01,2.83-.03,4.24,2.78-7.3,6.03-14.48,8.64-21.46-2.62,6.98-5.87,14.16-8.64,21.46-.08,6.02-.26,11.9.03,18.01.72,10.05,5.02,19.73,12.2,26.55,6.1,5.74,16.14,5.02,23.32,10.4,2.15,1.79,4.31,6.46,3.59,7.18-1.05.53-2.13.97-3.22,1.35,19.04-3.57,33.77-18.13,38.84-31.72,5.75-15.43,3.57-33.76-6.26-48.02"/>
  <path fill="#706f6f" d="M145.46,70.35c-1.93,0-3.66.41-5.3,1.25-6.43,3.31-8.11,12.57-9.58,20.73-.99,5.48-1.85,10.21-3.98,12.34l-.59.59c-6.39,6.33-25.83,25.62-21.57,54.74,4.46,30.5,30.65,42.06,53.67,42.7.31,0,.61.01.92.01,24.01,0,49.02-25.49,52-41.5,3.6-19.3.54-38.37-8.17-51-5.88-8.53-8.82-18.26-10.96-25.37-1.38-4.59-2.47-8.21-3.75-9.17-1.56-1.17-3.19-1.72-5.12-1.72-2.35,0-5.35.81-9.45,2.56-1.29.55-2.65.81-4.15.81-3.77,0-7.83-1.75-11.75-3.44-4.05-1.74-8.23-3.55-12.22-3.55ZM159.03,203.08h0c-.31,0-.62,0-.93-.01-12.96-.36-25.14-4.05-34.31-10.37-11.02-7.61-17.65-18.59-19.7-32.64-1.83-12.48.51-24.67,6.95-36.25,5.19-9.34,11.63-15.72,14.72-18.79l.59-.58c2.05-2.05,2.9-6.73,3.88-12.15,1.49-8.25,3.18-17.6,9.77-20.99,1.69-.87,3.47-1.29,5.46-1.29,4.07,0,8.29,1.82,12.37,3.58,4.07,1.76,7.92,3.41,11.61,3.41,1.45,0,2.77-.26,4.01-.79,4.15-1.76,7.19-2.59,9.59-2.59,2.01,0,3.71.57,5.33,1.79,1.37,1.03,2.42,4.52,3.88,9.35,2.14,7.09,5.06,16.79,10.91,25.27,8.76,12.71,11.83,31.87,8.22,51.27-3,16.12-28.18,41.79-52.35,41.79"/>
  <path fill="#2b2020" d="M124.92,109.38c-.12.98-5.04,8.73.86,10.32,5.9,1.6,16.59-21.02,16.1-23.11-.4-1.69-9.11,4.04-14.16,6.14-.36.72-.77,1.34-1.24,1.81-2.34,2.34-7.89,7.62-12.93,15.43,3.07,2.15,11.47-11.34,11.37-10.59"/>
  <path fill="#332a2a" d="M141.88,96.6c-.31-1.3-5.53,1.79-10.23,4.24-1.45,4.26-4.44,7.37-7.58,10.57-1.15,2.7-2.6,7.13,1.71,8.29,5.9,1.6,16.59-21.02,16.1-23.11"/>
  <path fill="#3d3232" d="M141.88,96.6c-.27-1.13-4.26,1.06-8.38,3.26-.02,6.03-5.59,10.66-10.43,14.58-.47,2.22-.17,4.47,2.72,5.26,5.9,1.6,16.59-21.02,16.1-23.11"/>
  <path fill="#3d3232" d="M144.09,84.56c-6.15,1.23,8.48,8.73,14.08,2.09,4.94-5.87,11.85-6.45,11.26-9.49-4.57,0-9.47-2.55-14.39-4.57.52,4.77-5.74,10.93-10.95,11.97"/>
  <path fill="#2b2020" d="M113.12,150.81c.12-3.81-3.2-3.32-2.58-11.68.41-5.54-1.08-6.94-3.6-5.88-2.34,6.55-3.71,14.06-3.14,22.43,3.65,1.77,9.23-2.32,9.32-4.87"/>
  <path fill="#332a2a" d="M110.54,139.13c.33-4.44-.56-6.22-2.23-6.21-2.65,7.35-3.41,15.46-3.25,23.13,3.55.51,7.98-2.98,8.05-5.25.12-3.81-3.2-3.32-2.58-11.68"/>
  <path fill="#3d3232" d="M110.54,139.13c.29-3.94-.38-5.78-1.69-6.14-2.39,7.21-2.41,15.25-2.54,23.09,3.26-.3,6.75-3.26,6.81-5.27.12-3.81-3.2-3.32-2.58-11.68"/>
  <path fill="#c7c8c9" d="M114.22,162.36c4.67,7.74,13.89,39.48,13.77,42.36-.12,2.88-1.92,7.92,4.51,12.34,6.43,4.42,5.32,16.72,2.13,19.67-3.2,2.95-25.2,18.68-23.48,20.9,1.72,2.21,30.11,6.64,32.08,2.58,1.97-4.06-.98-6.14,0-8.23s7.27-7.37,4.68-11.68c-2.59-4.3-5.73-20.42-4.68-23.81,1.06-3.38,1.68-11.44-.63-15.7-2.32-4.26,5.06-11.34,13.54-11.06-8.24-5.37-41.91-27.37-41.91-27.37"/>
  <path fill="#d9dadb" d="M114.22,162.36c4.67,7.74,13.89,39.48,13.77,42.36-.12,2.88-1.92,7.92,4.51,12.34,6.43,4.42,5.32,16.72,2.13,19.67-3.2,2.95-25.2,18.68-23.48,20.9.97,1.25,10.45,3.2,18.87,3.94,1.24-1.36,2.56-2.72,3.8-4.16,6.29-6.59,9.09-11.4,9.55-20.31.55-10.54-3.23-16.86-3.93-28.36-.87-14.32,8.57-19.11,15.47-18.98.4-.02.81-.03,1.22-.01-8.24-5.37-41.91-27.37-41.91-27.37"/>
  <path fill="#fff" d="M137.8,203.92c-.01-.35-.02-.71-.02-1.06,0,.12,0,.25,0,.37,0,.23.01.46.03.69"/>
  <path fill="#fff" d="M137.77,203.23c0-.12,0-.25,0-.37,0-.12,0-.23,0-.35,0-.17.02-.34.03-.51.29-7.32,2.74-14.63-.03-21.62-.7-.82-1.15-2.1-1.79-2.99-.33-.49-.65-.97-.96-1.46-10.56-6.9-20.79-13.58-20.79-13.58,4.67,7.74,13.89,39.48,13.77,42.36-.12,2.88-1.92,7.92,4.51,12.34,6.43,4.42,5.32,16.72,2.13,19.67-3.2,2.95-25.2,18.68-23.48,20.9.72.92,6.05,2.22,12.18,3.14,8.35-5,16.48-10.95,18.38-20.22,2.42-12.45-3.48-24.22-3.92-36.62-.02-.23-.03-.47-.03-.69"/>
  <path fill="#706f6f" d="M143.4,216.54c1.04-3.34,1.72-11.48-.65-15.83-.67-1.23-.51-2.8.46-4.42,1.06-1.78,3.05-3.56,5.6-4.79,1.72-.83,5.33-1.73,5.12-1.84-5.06.56-9.28,3.52-11.03,6.45-1.03,1.73-1.2,3.43-.46,4.78,2.32,4.26,1.65,12.27.62,15.56-1.09,3.48,2.07,19.59,4.7,23.95,1.87,3.11-1.14,6.86-3.13,9.34-.7.87-1.3,1.62-1.56,2.17-.44.93-.16,1.83.17,2.88.45,1.43.95,3.05-.17,5.36-.48,1-2.99,1.55-7.05,1.55-9.07,0-23.55-2.65-24.72-4.16-.05-.06-.07-.15-.05-.27.29-2.28,11.18-10.71,17.69-15.75,2.77-2.14,4.96-3.84,5.82-4.63,1.79-1.65,2.87-5.94,2.56-10.2-.18-2.55-1.04-7.22-4.71-9.74-5.39-3.71-4.91-7.78-4.57-10.76.06-.51.12-.99.13-1.43.07-1.6-2.68-11.83-5.94-22.03-.09.09.71,3.42,1.18,4.97,2.53,8.34,4.45,15.72,4.4,17.05-.02.42-.07.9-.13,1.4-.34,2.89-.84,7.27,4.72,11.09,3.55,2.44,4.38,6.98,4.56,9.47.29,4.09-.76,8.36-2.45,9.91-.85.79-3.03,2.48-5.8,4.62-9.23,7.15-17.54,13.75-17.83,15.99-.03.21.02.39.13.54,1.34,1.73,16.3,4.3,25.01,4.3,4.33,0,6.81-.59,7.38-1.75,1.18-2.43.63-4.2.19-5.62-.3-.97-.57-1.81-.19-2.62.24-.51.83-1.25,1.51-2.1,2.05-2.56,5.16-6.43,3.16-9.75-2.52-4.19-5.7-20.33-4.66-23.66"/>
  <path fill="#351204" d="M141.76,255.96c.12.49-3.44-1.11-3.75-1.91,0,0-3.38,1.84-5.04,1.91,0,0,1.84-.74,2.21-2.27-12.89.59-14.38-3.51-13.96-6.38-5.76,4.63-10.94,9.19-10.07,10.31,1.72,2.21,30.11,6.64,32.08,2.58,1.79-3.7-.5-5.76-.17-7.68-1.48,1.01-1.39,3.07-1.3,3.44"/>
  <path fill="#42170b" d="M132.97,255.96s1.84-.74,2.21-2.27c-12.89.59-14.38-3.51-13.96-6.38-5.76,4.63-10.94,9.19-10.07,10.31.87,1.12,8.57,2.8,16.22,3.67,2.87-1.86,5.76-3.73,8.23-6.09-.93.39-1.93.73-2.63.76"/>
  <path fill="#4c1c0c" d="M121.22,247.31c-5.76,4.63-10.94,9.19-10.07,10.31.72.92,6.05,2.22,12.18,3.14,3.53-2.11,7.02-4.39,10.01-7.02-11.19.13-12.52-3.71-12.12-6.43"/>
  <path fill="#633529" d="M121.58,250c-3.75,1.96-7.18,4.38-10.48,7.04-.07.24-.06.44.05.58.19.25.73.53,1.52.82,3.08-2.65,6.39-4.97,9.77-7.27-.38-.37-.66-.77-.86-1.17"/>
  <path fill="#1e0901" d="M120.99,247.72c-8.78,7.08-10.13,9.24-9.7,9.79,1.17,1.51,15.66,4.16,24.72,4.16,4.06,0,6.57-.55,7.05-1.55,1.12-2.31.61-3.93.17-5.36-.2-.64-.39-1.25-.39-1.84-1.09,1.03-.98,2.75-.92,3,.02.08,0,.15-.04.21-.05.07-.14.1-.26.1-.59,0-3.1-1.14-3.69-1.94-.69.36-3.47,1.79-4.97,1.85l-1.03.04.96-.38s1.57-.64,2.04-1.92c-6.68.28-11.02-.69-12.9-2.88-.78-.91-1.13-2.01-1.04-3.28ZM136.02,262.03c-8.71,0-23.66-2.57-25.01-4.3-.58-.74.17-2.58,10.1-10.56l.36-.29-.07.45c-.2,1.35.11,2.5.91,3.43,1.83,2.12,6.18,3.05,12.87,2.74h.24s-.06.22-.06.22c-.21.86-.83,1.48-1.38,1.87,1.69-.47,3.92-1.69,3.95-1.7l.18-.1.07.19c.22.58,2.67,1.79,3.38,1.88-.08-.6-.05-2.51,1.4-3.49l.35-.24-.07.42c-.11.65.1,1.32.35,2.11.44,1.42.99,3.19-.19,5.62-.56,1.16-3.04,1.75-7.38,1.75"/>
  <path fill="#3d3232" d="M124.96,192.23c1.83,6.34,3.08,11.41,3.03,12.49,0,.11-.01.22-.02.33,14.08-4.75,2.8-10.83-3.01-12.82"/>
  <path fill="#c7c8c9" d="M171.22,182.07c4.42,7.37,1.47,24.92.33,28.2-1.15,3.27-7.79,11.63-6.52,14.91,1.27,3.28-13.35,20.16-6.86,32.78-1.7,4.92-1.7,10,1.58,11.31,3.28,1.31,27.86,1.48,31.63-2.62,3.77-4.1-14.26-20.32-20.49-24.26-1.47-1.15,7.7-16.39,7.54-22.78-.16-6.39,4.91-13.6,7.87-16.88,2.95-3.28,16.72-28.68,12.46-32.61-7.54,2.46-27.53,11.96-27.53,11.96"/>
  <path fill="#d9dadb" d="M170.89,242.38c-1.47-1.15,7.7-16.39,7.54-22.78-.16-6.39,4.91-13.6,7.87-16.88,2.95-3.28,16.72-28.68,12.46-32.61-1.49.49-3.47,1.25-5.68,2.16-3.25,7.23-10.13,11.71-15.47,18.05-.78,1.08-1.3,2.21-1.63,3.37,1.8,8.35-1.14,15.44-4.18,23.3-2.87,7.89-9.26,16.12-11.41,24.73-1.79,8.25,4.73,11.98,7.96,18.08.72,1.08,3.16,2.99,3.88,3.71,2.13,2.77,4.9,4.4,7.69,6.17,5.33-.48,9.99-1.44,11.47-3.04,3.77-4.1-14.26-20.32-20.49-24.26"/>
  <path fill="#fff" d="M170.89,242.38c-1.47-1.15,7.7-16.39,7.54-22.78-.16-6.39,4.91-13.6,7.87-16.88,2.95-3.28,16.72-28.68,12.46-32.61-1.49.49-3.47,1.25-5.68,2.16-3.25,7.23-10.13,11.71-15.47,18.05-.78,1.08-1.3,2.21-1.63,3.37,1.8,8.35-.35,17.46-3.39,25.33-2.87,7.89-8.61,14.35-10.76,22.96-1.79,8.25,6.55,10.34,8.43,17.4.72,1.08,1.26,3.41,1.97,4.13,2.13,2.77,4.9,4.4,7.69,6.17,5.33-.48,9.99-1.44,11.47-3.04,3.77-4.1-14.26-20.32-20.49-24.26"/>
  <path fill="#706f6f" d="M198.96,175.9c-.63,2.74-1.93,6.35-3.9,10.69-3.4,7.51-7.54,14.5-8.9,16.01-.83.92-8.11,9.23-7.91,17,.09,3.48-2.67,9.71-4.88,14.72-2.21,4.99-3.33,7.63-2.58,8.21,5.68,3.59,20.14,16.63,20.89,22.23.1.74-.05,1.33-.44,1.75-2.3,2.5-12.72,3.39-20.93,3.39-5.06,0-9.28-.33-10.5-.81-3.44-1.38-2.95-6.83-1.47-11.08l.03-.07-.04-.07c-4.35-8.46.89-18.89,4.36-25.78,1.71-3.39,2.94-5.85,2.5-6.98-.82-2.1,1.86-6.56,4.01-10.14,1.14-1.89,2.12-3.53,2.51-4.64,1.08-3.08,3.45-17.29.86-25.56-.11.04-.22.08-.33.11,2.56,8.17.21,22.27-.87,25.33-.38,1.08-1.4,2.77-2.48,4.57-2.31,3.84-4.92,8.2-4.04,10.46.38.98-.88,3.5-2.49,6.69-3.49,6.95-8.77,17.43-4.4,26.04-1.5,4.39-1.95,10,1.7,11.46,1.26.5,5.53.84,10.63.84h0c8.69,0,18.82-.92,21.2-3.51.46-.5.64-1.19.53-2.04-.81-6.09-15.98-19.28-21.03-22.47-.55-.43,1.1-4.16,2.7-7.77,2.23-5.04,5-11.31,4.91-14.87-.2-7.63,7-15.85,7.82-16.76,1.56-1.73,5.82-9.15,8.96-16.11,2.36-5.21,4.75-11.55,4.3-14.93-.1.1-.37,2.54-.73,4.09"/>
  <path fill="#351204" d="M181.22,250.81c-2.02,4.64-7.69,8.23-16.07,6.97.16,2.46-.82,2.95-.82,2.95-.16-.57-2.13-3.85-2.13-3.85-.25.82-2.05,2.29-1.64,3.28-.53-.19-1.47-1.26-2.4-2.21-1.76,5.08-1.62,10.03,1.58,11.31,3.28,1.31,27.86,1.48,31.63-2.62,2.34-2.55-3.73-9.77-10.16-15.82"/>
  <path fill="#42170b" d="M181.22,250.81c-1.9,4.36-7.01,7.79-14.57,7.15-.09,5.97,4.46,9.43,9.59,11.97,6.74-.35,13.33-1.33,15.14-3.3,2.34-2.55-3.73-9.77-10.16-15.82"/>
  <path fill="#4c1c0c" d="M181.22,250.81c-1.64,3.77-5.68,6.84-11.63,7.19.44.61-2.4,7.2,10.32,11.67,5.33-.48,9.99-1.44,11.47-3.04,2.34-2.55-3.73-9.77-10.16-15.82"/>
  <path fill="#633529" d="M180.66,251.91c-.72,1.24-1.72,2.37-2.98,3.32,3.41,4.09,6.14,8.71,8.37,13.58,1.06-.22,2.02-.48,2.83-.76-2.13-5.84-4.07-11.75-8.22-16.14"/>
  <path fill="#1e0901" d="M158.24,258.29c-1.5,4.52-1.59,9.54,1.57,10.81,1.22.49,5.44.81,10.5.81,8.22,0,18.63-.89,20.93-3.39,1.84-2-1.88-7.75-9.96-15.4-2.03,4.39-6.93,7.1-12.84,7.1-1,0-2.04-.07-3.1-.22.1,2.36-.89,2.88-.93,2.9l-.19.1-.06-.21c-.12-.41-1.31-2.46-1.94-3.52-.15.25-.36.54-.59.83-.53.69-1.13,1.47-.91,2l.16.38-.38-.14c-.46-.17-1.14-.87-1.92-1.69-.11-.12-.23-.24-.34-.35ZM170.31,270.26h0c-5.1,0-9.38-.34-10.63-.84-3.03-1.21-3.69-5.74-1.68-11.53l.09-.28.2.21c.18.19.37.38.55.57.53.56,1.08,1.13,1.48,1.43.02-.62.55-1.32,1.03-1.94.31-.4.6-.78.68-1.04l.12-.39.21.35c.18.3,1.64,2.74,2.05,3.65.24-.27.68-.98.57-2.64v-.22s.21.03.21.03c1.11.17,2.21.25,3.26.25,5.87,0,10.7-2.73,12.61-7.12l.1-.23.19.18c4.02,3.78,13.06,12.93,10.16,16.07-2.38,2.59-12.51,3.51-21.2,3.51"/>
  <path fill="#3d3232" d="M187.55,201c1.22-1.85,2.92-4.79,4.67-8.15-2.85-1.45-7.11,1.81-4.67,8.15"/>
  <path fill="#d1d1d1" d="M208.62,54.44c-12.25,2.91-25.44,28.48-36.17,26.83-3.35-.51-5.15,1.2-5.25,1.2-4.03-.06-10.48-.58-20.08,12.09-9.6,12.67-17.28,36.86-17.27,53.59.02,16.73,6.72,39.19,39.38,36.77,32.67-2.42,36.68-38.56,37.11-44.14.43-5.58,2.27-25.49,2.27-25.49v-60.84"/>
  <path fill="#d9dadb" d="M197.08,128.61c-2.75,14.52-5.49,22.24-6.92,33.01-1.43,10.76-13.27,15.79-23.68,17.22-6.2,1.03-12.28,2.13-18.31,3.23,5.4,2.35,12.3,3.49,21.08,2.84,32.67-2.42,36.68-38.56,37.11-44.14.24-3.12.92-10.74,1.48-16.84-4.91.44-9.8-.35-10.75,4.67"/>
  <path fill="#d9dadb" d="M172.45,81.27c-.06,0-.12-.01-.18-.02-7.51,6.3-14.74,13.14-17.28,23.32-1.44,7.53-2.87,14.35-4.66,21.53-3.2,13.16-1.82,25.62-3.2,38.77,9.37,5.59,20.52,8.84,27.95,2.48,8.97-7.18,6.97-24.18,6.26-34.94-.72-15.79-1.95-29.64,7.38-43.63,4.86-7.02,12.16-9.77,19.91-10.09v-24.25c-12.25,2.91-25.44,28.48-36.17,26.83"/>
  <path fill="#fff" d="M197.33,149.41c4.32-6.31,5.25-15.7,1.95-22.75-3.21,8.85-4.35,18.61-7.48,27.36,2.28-.94,4.24-2.39,5.54-4.61"/>
  <path fill="#fff" d="M174.15,81.31c-2.04,1.49-4.12,2.92-6.24,4.24-7.53,5.38-13.98,11.95-16.5,20.09-5.04,16.25-10.39,38.87-3.95,54.17,2.24,5.33,8.61,6.46,13.63,7.89,10.05,2.87,17.58-4.66,18.3-13.99,1.08-17.22-1.08-34.44,1.44-52.02.36-1.08.36-2.51,1.08-3.95.14-.21.28-.42.42-.62.35-9.76,4.29-18.7,7.77-27.7-5.57,5.92-10.99,11.41-15.94,11.88"/>
  <path fill="#706f6f" d="M165.8,82.63c-4.66,0-10.5,1.43-18.53,12.03-9.52,12.56-17.24,36.55-17.23,53.48.01,13.73,4.51,36.76,34.48,36.77h0c1.51,0,3.1-.06,4.71-.18,32.11-2.38,36.41-37.05,36.94-43.97.42-5.51,2.26-25.29,2.27-25.49v-60.6c-5.62,1.46-11.49,7.71-17.17,13.77-6.32,6.73-12.29,13.09-17.81,13.09-.35,0-.7-.03-1.04-.08-.41-.06-.82-.09-1.21-.09-2.1,0-3.36.88-3.78,1.17-.13.09-.17.12-.24.12h-.38c-.32-.01-.66-.02-1.02-.02ZM164.52,185.27h0c-12.84,0-22.33-4.24-28.19-12.59-5.48-7.81-6.64-17.65-6.64-24.53-.02-17,7.75-41.09,17.3-53.7,8.13-10.73,14.07-12.18,18.82-12.18.36,0,.7,0,1.03.01h.33s.05-.03.08-.05c.44-.31,1.77-1.24,3.98-1.24.41,0,.84.03,1.26.1.32.05.65.07.98.07,5.37,0,11.28-6.3,17.55-12.98,5.79-6.17,11.78-12.55,17.57-13.92l.22-.05v61.07c-.02.21-1.85,19.99-2.27,25.5-.23,2.94-1.37,13.33-6.48,23.32-6.61,12.9-16.97,19.96-30.79,20.98-1.62.12-3.21.18-4.73.18"/>
  <path fill="#2b2020" d="M166.65,104.36c10.4-.51,4.13-13.44,8.97-13.44,4.42.01,7.09-8.85,14.94-21.99-6.38,6.79-12.57,13.19-18.1,12.34-3.35-.51-5.15,1.2-5.25,1.2-.77-.01-1.62-.04-2.57,0-3.84,8.35-6.25,22.29,2.02,21.88"/>
  <path fill="#332a2a" d="M173.75,81.34c-4.12,2.4-8.15,5.12-11.65,8.35-1.85,7.36-1.6,14.98,4.54,14.68,10.4-.51,4.13-13.44,8.97-13.44,4.42.01,7.09-8.85,14.94-21.99-5.88,6.26-11.61,12.18-16.8,12.4"/>
  <path fill="#3d3232" d="M174.49,81.27c-4.42,2.75-8.85,5.82-12.65,9.56-1.54,6.98-1.01,13.82,4.81,13.53,10.4-.51,4.13-13.44,8.97-13.44,4.26,0,6.91-8.25,14.14-20.64.11-.29.22-.57.33-.86-5.45,5.79-10.75,11.16-15.61,11.84"/>
  <path fill="#3d3232" d="M190.1,69.43c-.11.28-.22.57-.33.86.26-.44.52-.89.79-1.35-.15.16-.31.33-.46.49"/>
  <path fill="#2b2020" d="M141.02,144.51c-9.9-9-27.41-.43-16.1,11.6s-9.55,12.77-3.42,22.23c6.13,9.46,13.5,7.25,13.5.61s11.08,3.57,12.91-7.13c1.84-10.69.12-20.95-6.89-27.31"/>
  <path fill="#3d3232" d="M143.12,146.74c.37,5.23,2.29,10.2,5.36,14.54-.42-5.54-2.11-10.58-5.36-14.54"/>
  <path fill="#3d3232" d="M129.96,140.84c-7.3.75-12.6,7.23-5.05,15.27,11.31,12.03-9.55,12.77-3.42,22.23,6.13,9.46,13.5,7.25,13.5.61,0-1.01.26-1.62.69-1.99-8.1-11.99-8.46-24.14-5.73-36.13"/>
  <path fill="#2b2020" d="M209.24,147.49c-.79-6.47-6.15-5.04-6.39,0-.25,5.04-12.57,6.8-13.39,9.42-1.67,5.37,4.95,11.88,9.58,12.46,6.88.86,7.99,4.92,9.46-4.3,1.47-9.22-2.09-7.01-1.11-10.32.98-3.32,2.09-5.25,1.84-7.25"/>
  <path fill="#332a2a" d="M207.39,154.74c.98-3.32,2.09-5.25,1.84-7.25-.54-4.47-3.27-5.16-4.98-3.51-1.18,8.56-4.45,16.49-8.6,24.13,1.15.68,2.32,1.12,3.38,1.26,2.15.27,3.73.85,4.95,1.24,1.71-2.45,3.51-4.85,4.78-7.52.68-6.92-2.27-5.29-1.36-8.35"/>
  <path fill="#3d3232" d="M207.39,154.74c.98-3.32,2.09-5.25,1.84-7.25-.47-3.88-2.59-4.91-4.26-4.04-2.64,8.55-5.01,17.08-7.9,25.37.67.28,1.33.47,1.96.55,1.24.16,2.3.42,3.2.68,2.66-2.66,5.14-5.47,6.62-9.04-.05-4.54-2.27-3.57-1.47-6.27"/>
  <path fill="#ce1320" d="M198.42,96.29s4.42,24.89,4.18,46.87c-.25,21.97-21.38,42.68-44.43,31.13-13.31-6.67-17.63-18.23-16.45-31.67,4.19-48.01,22.29-57.34,30.56-61.37-3.2-.6-4.98,1.22-5.08,1.22-4.03-.06-10.48-.58-20.08,12.09-9.6,12.67-17.28,36.86-17.27,53.59.02,16.73,6.72,39.19,39.38,36.77,32.67-2.42,36.68-38.56,37.11-44.14.43-5.58,2.27-25.49,2.27-25.49v-16.23l-10.2-2.76"/>
  <path fill="#e2172b" d="M158.17,174.29c-13.31-6.67-17.63-18.23-16.45-31.67,4.19-48.01,22.29-57.34,30.56-61.37-3.2-.6-4.98,1.22-5.08,1.22-4.03-.06-10.48-.58-20.08,12.09-9.6,12.67-13.83,31.88-13.82,48.61.01,16.73,11.45,40.05,35.93,39.53,32.75-.69,36.68-36.34,37.11-41.92.1-1.32.28-3.46.5-5.94-2.42,7.39-2.2,16.37-7.09,21.92-6.53,15.75-23.47,26.62-41.6,17.53"/>
  <path fill="#fc3d59" d="M161.07,83.07c-3.63,1.07-8.23,3.94-13.94,11.48-6.62,8.74-12.33,22.96-15.23,36.43,3.25-9.85,7.29-19.21,11.97-28.57,3.79-7.58,9.42-15.36,17.19-19.34"/>
  <path fill="#fc6d88" d="M138.13,142.6c1.43-11.84,8.44-46.99,23.55-54.39-18.38,10.48-21.27,35.11-23.55,54.39"/>
  <path fill="#fc6d88" d="M203.96,153.6c1.73-6.02,2.25-11.02,2.39-12.82.17-2.24.57-6.81.99-11.46-.25.81-1.22,1.22-1.19,1.87.27,6.57-.59,16.74-6.31,29.35,1.45-2.25,2.82-4.58,4.12-6.94"/>
  <path fill="#890912" d="M165.8,82.63c-4.66,0-10.5,1.43-18.53,12.03-9.52,12.56-17.24,36.55-17.23,53.48.01,13.73,4.51,36.76,34.48,36.77,1.51.01,3.1-.06,4.71-.18,32.11-2.38,36.41-37.05,36.94-43.97.42-5.51,2.26-25.29,2.27-25.49v-16.08l-9.8-2.65c.48,2.8,4.36,26.12,4.13,46.62-.1,8.64-3.45,17.36-9.2,23.94-6.01,6.88-13.86,10.67-22.1,10.67-4.48,0-8.98-1.12-13.39-3.33-12.29-6.16-17.86-16.88-16.55-31.85,4.16-47.61,21.98-57.26,30.14-61.26-.23-.02-.46-.04-.68-.04-1.95,0-3.16.91-3.55,1.21-.13.1-.17.13-.25.13h-.38c-.32-.01-.66-.02-1.02-.02ZM164.52,185.27h0c-12.84,0-22.33-4.24-28.19-12.59-5.48-7.81-6.64-17.65-6.64-24.53-.02-17,7.75-41.09,17.3-53.7,8.13-10.73,14.07-12.18,18.82-12.18.36,0,.7,0,1.03.01h.33s.04-.03.08-.05c.42-.32,1.7-1.29,3.77-1.29.43,0,.87.04,1.31.13l.53.1-.49.24c-7.85,3.82-26.23,12.78-30.46,61.22-1.29,14.81,4.21,25.41,16.35,31.49,4.35,2.19,8.81,3.29,13.23,3.29,16.28,0,30.73-16.01,30.94-34.26.25-21.7-4.13-46.58-4.17-46.83l-.05-.28,10.61,2.87v16.37c-.02.21-1.85,19.99-2.27,25.5-.23,2.94-1.37,13.33-6.48,23.32-6.61,12.9-16.97,19.96-30.79,20.98-1.62.12-3.21.18-4.73.18"/>
  <path fill="#890912" d="M198.17,160.5l-.29-.22c6.26-8.27,8.04-30.26,8.15-35.26h.36c0,.26-.99,25.91-8.22,35.47"/>
  <path fill="#890912" d="M172.06,180.06c-7.78,0-15.77-2.72-22.08-7.65-6.67-5.2-10.79-12.35-11.6-20.12-1.28-12.3,1.91-34.46,9.48-50.25,6.64-13.86,19.14-19.69,19.26-19.75l.15.33c-.12.06-12.5,5.84-19.09,19.58-7.54,15.73-10.73,37.8-9.45,50.05.8,7.67,4.87,14.72,11.46,19.87,7.47,5.83,17.32,8.54,26.33,7.26,16.58-2.36,26.37-22.98,27.49-26.68l.34.1c-1.12,3.73-11.02,24.54-27.78,26.93-1.49.21-3.01.32-4.53.32"/>
  <path fill="#b3b3b3" d="M168.49,177.43c1.35,3.56-1.04,7.74-4.3,8.29,3.5,1.29,10.2-.96,7.86-8.13-1.47,0-3.56-.16-3.56-.16"/>
  <path fill="#ccc" d="M172.05,177.59c-1.47,0-3.56-.16-3.56-.16.76,1.99.34,4.17-.74,5.8.06.68.28,1.19.88,1.34,2.02.52,4.43-3.91,3.43-6.99"/>
  <path fill="#999" d="M164.88,185.73c.44.1.91.15,1.4.15,1.64,0,3.85-.62,5.12-2.37,1.06-1.46,1.24-3.45.53-5.74-1.13-.01-2.58-.1-3.17-.14.57,1.72.35,3.64-.61,5.32-.79,1.38-1.95,2.36-3.26,2.78ZM166.27,186.24h0c-.77,0-1.51-.12-2.15-.36l-.63-.23.66-.11c1.46-.25,2.8-1.26,3.67-2.77.96-1.67,1.14-3.59.5-5.28l-.1-.26.28.02s2.1.15,3.55.16h.13s.04.12.04.12c.8,2.46.61,4.6-.54,6.19-1.35,1.86-3.68,2.52-5.41,2.52"/>
  <path fill="#e08712" d="M167.67,183.35c-5.94,1.08-6.92,5.75.39,8.08,7.31,2.34,3.75-8.22,3.75-8.22-.71.94-1.48,1.61-1.48,1.61.66,1.08.66,4.89-1.37,4.71-2.03-.19-5.68-2.28-3.48-4.23,1.52-.84,2.2-1.95,2.2-1.95"/>
  <path fill="#f4911c" d="M167.67,183.35c-5.94,1.08-4.05,6.7.53,7.03,6.84.5,3.61-7.17,3.61-7.17-.71.94-1.48,1.61-1.48,1.61.66,1.08.66,4.89-1.37,4.71-2.03-.19-5.68-2.28-3.48-4.23,1.52-.84,2.2-1.95,2.2-1.95"/>
  <path fill="#f9be85" d="M171.81,183.21c-.28.37-.57.7-.82.96.88,1.84,1.13,3.85.37,5.55,2.43-1.8.45-6.51.45-6.51"/>
  <path fill="#999" d="M167.24,183.62h0c-.04.07-.08.12-.14.16-.34.37-.88.88-1.65,1.32.07.46-.56.78-.44,1.19.08-.29.26-.57.57-.85,1.53-.85,2.22-1.96,2.25-2l.21-.34-.4.07c-.08.01-.16.03-.23.05-.05.14-.09.28-.16.4h0"/>
  <path fill="#b76c08" d="M167.24,183.62s-.09.1-.14.16c.06-.04.1-.1.14-.16"/>
  <path fill="#b76c08" d="M170.13,188.68c-.27.49-.66.71-1.16.67-1.47-.13-3.56-1.23-3.94-2.39-.07-.23-.08-.45-.02-.66-.12-.41.51-.73.44-1.19-.02.01-.04.03-.07.04l-.03.02c-.82.73-.81,1.44-.66,1.91.46,1.42,2.83,2.51,4.25,2.64.65.06,1.16-.24,1.5-.85.66-1.17.52-3.13.11-3.99-.1.08-.21.13-.32.16.37.77.48,2.63-.1,3.66"/>
  <path fill="#999" d="M172.05,183.38c-.04-.13-.07-.21-.07-.23l-.11-.32-.2.27c-.69.91-1.45,1.58-1.46,1.58l-.11.1.08.13s.04.07.06.11c.12-.03.23-.08.32-.16h0s.08-.08.13-.13c.04-.05.07-.1.1-.16-.03.06-.07.11-.1.16.21-.2.53-.52.87-.92-.02.01-.04.03-.05.05.02-.02.03-.03.05-.05.06-.07.12-.14.19-.22,0,.02.01.04.02.06.11-.08.22-.16.3-.26"/>
  <path fill="#b76c08" d="M172.05,183.38c-.08.1-.18.18-.3.26.37,1.24,1.41,5.26.11,7.06-.68.95-1.95,1.13-3.75.56-3.26-1.04-5.15-2.68-5.04-4.37.09-1.46,1.71-2.72,4.16-3.27.07-.12.11-.26.16-.4-2.79.56-4.57,1.95-4.68,3.65-.12,1.87,1.86,3.64,5.29,4.74.72.23,1.37.34,1.93.34.98,0,1.73-.35,2.22-1.04,1.47-2.05.22-6.47-.11-7.53"/>
  <path fill="#f7931e" d="M170.15,190.88c-10.69.39-18.31,19.26-16.47,25.61,1.84,6.35,20.73,8.62,28.76,3.61,5.78-3.61-2.09-29.59-12.29-29.22"/>
  <path fill="#f4ad21" d="M163.6,218.3c5.06,2.83,10.47,3.61,15.89,3.17,1.09-.38,2.08-.83,2.95-1.37,5.78-3.61-2.09-29.59-12.29-29.22-1.13.04-2.23.29-3.29.71-2.46,2.36-4.19,5.47-5.42,8.41-2.51,6.1-4.31,14.71,2.15,18.3"/>
  <path fill="#f9d18a" d="M170.15,190.88c-.61.02-1.22.11-1.81.25,3.23.58,13.56,4.33,15.31,27.54,3.17-6.53-4.19-28.12-13.5-27.78"/>
  <path fill="#d15d07" d="M170.37,191.05c-.07,0-.14,0-.21,0-4.71.17-8.38,3.91-10.62,7.02-4.19,5.79-6.84,14.37-5.68,18.36,1.17,4.04,9.35,6.21,16.45,6.21h0c4.9,0,9.29-.99,12.05-2.71,2.25-1.4,2.5-6.72.63-13.24-2.16-7.54-7.03-15.65-12.62-15.65ZM170.3,223.01h0c-7.41,0-15.56-2.22-16.79-6.47-1.21-4.15,1.42-12.7,5.74-18.67,2.29-3.17,6.05-6.99,10.9-7.17,5.86-.21,10.96,8.15,13.18,15.91,1.47,5.14,2.15,11.8-.79,13.64-2.85,1.78-7.2,2.76-12.24,2.76"/>
  <path fill="#753a12" d="M246.93,47.02c10.65-4.1,25.07-26.22,28.19-21.47,3.11,4.75-5.08,29.83-17.21,33.6-5.41-2.46-10.98-12.13-10.98-12.13"/>
  <path fill="#87461b" d="M265.85,44.3c3.31-4.26,7.41-8.52,9.81-13.5.27-2.38.11-4.25-.54-5.24-3.11-4.75-17.54,17.37-28.19,21.47,0,0,2.18,3.78,5.13,7.21,5.17-2.44,9.98-5.41,13.79-9.94"/>
  <path fill="#964a24" d="M275.44,26.24c-.09-.26-.2-.49-.32-.68-3.11-4.75-17.54,17.37-28.19,21.47,0,0,1.62,2.8,3.95,5.77,10.55-6.53,19.7-14.86,24.56-26.56"/>
  <path fill="#d18462" d="M246.93,47.02s.32.56.88,1.44c16.69-11.16,16.74-16.22,26.59-23.49-4.2-1.45-17.49,18.22-27.47,22.06"/>
  <path fill="#4f2407" d="M247.19,47.12c.79,1.32,5.86,9.58,10.73,11.84,6.99-2.22,12.53-11.5,15.39-19.46,2.24-6.23,2.92-11.92,1.66-13.85-.26-.39-.6-.58-1.05-.58-2.1,0-6.02,4.01-10.56,8.66-5.19,5.31-11.06,11.32-16.17,13.39ZM257.9,59.34l-.06-.03c-5.4-2.45-10.83-11.81-11.06-12.2l-.1-.18.2-.08c5.09-1.95,11.01-8.02,16.24-13.38,4.59-4.7,8.56-8.77,10.82-8.77.57,0,1.02.25,1.35.74,1.34,2.05.69,7.74-1.62,14.16-2.9,8.07-8.54,17.48-15.69,19.7l-.06.02"/>
  <path fill="#753a12" d="M231.04,43.75c-14.1-15.3-7.21-30.15-1.64-33.43,5.57-3.28-9.34-12.62-19.5,3.44-10.16,16.06-7.21,36.71,8.36,38.51,5.08-3.11,12.78-8.52,12.78-8.52"/>
  <path fill="#87461b" d="M212.22,42.03c2.87-7.53.04-18.66,5.28-23.8,4.44-4.36,13.11-7.29,13.11-9.68,0-3.73-12.07-8.45-20.71,5.21-5.95,9.41-7.4,20.4-4.45,28.25.36.32.95,2.34,1.41,2.6,1.79,1.08,4.65-.78,5.37-2.57"/>
  <path fill="#964a24" d="M211.41,39.99c2.87-7.53-.81-15.43,4.22-21.89,3.73-4.98,9.9-6.45,14.98-9.56,0-3.73-12.07-8.45-20.71,5.21-5.95,9.41-7.4,20.4-4.45,28.25.36.32.76.61,1.22.86,1.79,1.08,4.04-1.08,4.75-2.87"/>
  <path fill="#d18462" d="M209.89,13.76c-4.89,7.72-6.74,16.51-5.61,23.74-.27-8.45,2.36-16.87,7.4-24.42,3.95-5.74,15.52-10.4,18.48-4.27.15-.09.3-.18.44-.27,0-3.73-12.07-8.45-20.71,5.21"/>
  <path fill="#4f2407" d="M223.67,4.81c-2.95,0-8.65,1.17-13.63,9.05-6.11,9.66-7.64,21.56-3.79,29.6,2.39,5,6.52,7.98,11.96,8.63,4.6-2.83,11.4-7.56,12.55-8.37-8-8.77-8.77-16.82-8-22.04.86-5.81,3.9-9.97,6.54-11.52.91-.54,1.28-1.25,1.06-2.07-.43-1.58-3.11-3.29-6.69-3.29ZM218.29,52.45h-.06c-5.6-.66-9.85-3.71-12.31-8.85-3.89-8.15-2.36-20.19,3.82-29.95,5.07-8.02,10.9-9.21,13.93-9.21,3.8,0,6.57,1.8,7.04,3.55.27.97-.17,1.85-1.22,2.47-2.56,1.51-5.52,5.57-6.36,11.26-.77,5.17,0,13.17,8.04,21.9l.14.15-.17.12c-.08.06-7.77,5.45-12.79,8.53l-.05.03"/>
  <path fill="#2b2020" d="M215.63,50.47c-12.45.49-31.14-11.31-49.66-.66-18.52,10.65-13.33,29.22,9.34,20.36,22.67-8.86,30.48-8.89,40.32-4.46.16-8.03,0-15.24,0-15.24"/>
  <path fill="#332a2a" d="M215.63,50.47c-12.45.49-31.14-11.31-49.66-.66-10.49,6.03-13.37,14.6-9.78,19.29,8.37-14.31,36.03-13.54,53.69-9.38,2.08.52,3.97.29,5.81.26.02-5.43-.07-9.51-.07-9.51"/>
  <path fill="#3d3232" d="M165.97,49.81c-9.76,5.62-12.93,13.43-10.43,18.27,1.7-4.81,6.96-7.7,11.29-9.43,15.84-6.27,32.6-1.31,48.87-1.03,0-4.21-.07-7.14-.07-7.14-12.45.49-31.14-11.31-49.66-.66"/>
  <path fill="#686060" d="M165.97,49.81c-2.04,1.17-3.79,2.44-5.26,3.76,3.28-2.73,7.22-4.69,11.5-5.69,14.95-3.56,28.84,2.77,43.43,3.22,0-.4-.01-.63-.01-.63-12.45.49-31.14-11.31-49.66-.66"/>
  <path d="M183.22,45.52c-6.34,0-11.95,1.46-17.15,4.45-9.19,5.29-12.1,12.16-10.9,16.63.97,3.64,4.43,5.72,9.5,5.72,3.1,0,6.67-.78,10.59-2.31,13.39-5.24,21.52-7.37,28.04-7.37,4.09,0,7.74.84,12.17,2.8.14-7.13.02-13.63,0-14.78-.2,0-.4,0-.6,0h0c-3.89,0-8.39-1.09-13.16-2.24-5.62-1.36-11.98-2.9-18.48-2.9ZM164.65,72.68c-5.16,0-8.84-2.24-9.84-5.99-1.23-4.6,1.72-11.65,11.07-17.04,5.26-3.02,10.93-4.49,17.33-4.49s12.93,1.55,18.56,2.91c4.75,1.15,9.23,2.23,13.07,2.23h0c.26,0,.52,0,.77-.01h.18s0,.17,0,.17c0,.07.16,7.31,0,15.25v.27s-.25-.11-.25-.11c-4.49-2.02-8.15-2.88-12.27-2.88-6.47,0-14.56,2.13-27.91,7.35-3.97,1.55-7.58,2.34-10.72,2.34"/>
  <path fill="#4c2424" d="M158.92,67.18c-2.98,2.61,5.81,4.37,13.45,4.02.94-.29,1.92-.63,2.94-1.03,22.67-8.86,30.48-8.89,40.32-4.46.01-.52.02-1.03.03-1.53-29.26-13.64-52.95-.3-56.73,3.01"/>
  <path fill="#603535" d="M204.61,60.16c-12.66,1.5-23.62,5.72-35.63,9.25-1.69.56-3.38.91-4.9,1.38,2.49.38,5.47.54,8.3.41.94-.29,1.92-.63,2.94-1.03,22.67-8.86,30.48-8.89,40.32-4.46.01-.52.02-1.03.03-1.53-3.79-1.77-7.48-3.08-11.05-4.02"/>
  <path d="M189.36,58.33c-16.64,0-28.14,7.09-30.31,8.99-.46.4-.62.78-.49,1.13.54,1.44,5.85,2.62,11.83,2.62.66,0,1.32-.01,1.96-.05.95-.29,1.93-.63,2.9-1.01,13.39-5.24,21.52-7.37,28.04-7.37,4.09,0,7.74.84,12.17,2.8,0-.38.02-.77.02-1.15-8.51-3.95-17.3-5.96-26.12-5.96ZM170.39,71.42c-5.38,0-11.47-1-12.17-2.85-.19-.5.01-1.01.59-1.52,2.19-1.92,13.8-9.07,30.55-9.07,8.91,0,17.78,2.03,26.38,6.04l.11.05v.12c0,.51-.02,1.02-.03,1.54v.27s-.25-.11-.25-.11c-4.49-2.02-8.15-2.88-12.27-2.88-6.47,0-14.56,2.13-27.91,7.35-.99.39-1.98.73-2.95,1.03h-.05c-.65.04-1.32.05-2,.05"/>
  <path fill="#4c2424" d="M261.36,62.59c6.55,9.83,13.76,19.68,26.38,18.53s12.78,6.55,6.72,13.27c-6.06,6.72-42.28,22.62-40.97-19.34,3.77-6.72,7.87-12.46,7.87-12.46"/>
  <path fill="#603535" d="M295.38,81.95c.78,4.98-1.76,10.11-6.57,12.22-11.07,3.93-21.87,2.7-32.31-.67,8.66,17.66,33.08,6.3,37.96.89,4.42-4.9,5.52-10.31.92-12.44"/>
  <path d="M253.67,75.1c-.33,10.64,1.75,18.35,6.18,22.92,3.09,3.18,7.27,4.8,12.42,4.8,9.56,0,19.3-5.48,22.07-8.55,3.28-3.63,4.57-7.3,3.45-9.81-.95-2.14-3.59-3.27-7.65-3.27-.74,0-1.54.04-2.38.12-.68.06-1.35.09-2.01.09-11.07,0-17.87-8.72-24.39-18.48-.77,1.1-4.38,6.29-7.69,12.19M272.26,103.18c-5.25,0-9.52-1.65-12.68-4.91-4.5-4.64-6.61-12.46-6.27-23.22v-.04l.02-.04c3.73-6.65,7.84-12.41,7.88-12.47l.15-.21.14.22c6.51,9.77,13.26,18.54,24.24,18.54.65,0,1.31-.03,1.98-.09.85-.08,1.66-.12,2.41-.12,5.31,0,7.27,1.89,7.97,3.48,1.17,2.64-.14,6.46-3.52,10.2-2.81,3.11-12.67,8.67-22.33,8.67"/>
  <path fill="#2b2020" d="M287.74,81.12c-12.62,1.16-19.83-8.69-26.38-18.53,0,0-1.46,2.04-3.44,5.11,3.28,12.83,12.17,23.57,22.61,21.11,9.2-2.17,19.29.24,11.41,7.7,1.08-.75,1.94-1.48,2.52-2.13,6.07-6.72,5.9-14.42-6.72-13.27"/>
  <path fill="#332a2a" d="M287.74,81.12c-12.62,1.16-19.83-8.69-26.38-18.53,0,0-1.08,1.51-2.64,3.88,3.61,7.88,7.62,15.93,15.74,20.15,5.38,2.51,10.76-.36,16.5.36,3.65.37,4.89,2.5,5.31,5.08,4.04-6.04,2.64-11.96-8.54-10.94"/>
  <path fill="#3d3232" d="M287.74,81.12c-12.62,1.16-19.83-8.69-26.38-18.53,0,0-1.08,1.51-2.64,3.88,6.01,6.29,7.74,14.85,15.86,19.07,5.38,2.51,10.76-.12,16.5.6,3.66.37,6.1,3.41,5.2,5.91,4.04-6.04,2.64-11.96-8.54-10.94"/>
  <path fill="#686060" d="M271.94,77.33c7.69,7.03,16.87,2.84,24.04,6.07,1.09.47,1.8,1.18,2.28,2.07-.52-3-3.69-4.97-10.52-4.35-12.62,1.16-19.83-8.69-26.38-18.53,0,0-.13.18-.36.5,3.09,5.67,5.36,9.97,10.94,14.23"/>
  <path d="M286.9,87.87c4.2,0,7.14,1.1,7.87,2.94.47,1.18.08,2.58-1.17,4.17.28-.25.52-.49.73-.72,3.28-3.63,4.57-7.3,3.45-9.81-.95-2.14-3.6-3.27-7.65-3.27-.74,0-1.54.04-2.38.12-.68.06-1.35.09-2.01.09-11.07,0-17.87-8.72-24.39-18.48-.42.59-1.67,2.39-3.24,4.83,3.22,12.52,11.2,21.25,19.42,21.25.98,0,1.98-.12,2.96-.35,2.14-.5,4.35-.77,6.41-.77ZM292.04,96.66l-.23-.28c2.27-2.15,3.18-4.03,2.62-5.44-.68-1.7-3.5-2.72-7.54-2.72-2.03,0-4.22.26-6.33.76-1.01.24-2.03.36-3.04.36-4.36,0-8.59-2.23-12.25-6.45-3.35-3.87-6.03-9.25-7.53-15.15l-.02-.08.04-.07c1.96-3.04,3.43-5.1,3.44-5.12l.15-.21.14.22c6.51,9.77,13.26,18.54,24.24,18.54h0c.65,0,1.31-.03,1.98-.09.85-.08,1.66-.12,2.41-.12,5.31,0,7.27,1.89,7.97,3.48,1.17,2.64-.14,6.46-3.52,10.2-.59.66-1.47,1.4-2.55,2.15"/>
  <path fill="#d1d1d1" d="M252.26,51.12c-4.18-9.09-16.87-24.02-43.64,1.15-26.76,25.17-29.87,43.35-25.32,58.84,4.55,15.49,25.32,22,25.32,22,1.76,11.76,8.32,19.95,19.3,21.92,10.98,1.97,21.63-1.97,19.01-20.16-2.62-18.19,24.26-26.39,24.26-33.43s-2.41-8.64-2.93-15.88c-.51-7.23,6.53-18.87,1.12-28.21-5.41-9.34-17.13-6.23-17.13-6.23"/>
  <path fill="#d9dadb" d="M187.64,97.39c7.51,29.58,32.69,39.5,59.66,44.12.1-1.97,0-4.18-.36-6.65-2.62-18.19,24.26-26.39,24.26-33.43s-2.41-8.64-2.93-15.88c-.51-7.23,6.53-18.87,1.12-28.21-5.41-9.34-17.13-6.23-17.13-6.23-4.18-9.09-16.87-24.02-43.64,1.15-8.14,7.65-14.08,14.66-18.3,21.14-.06.1-.12.2-.17.31-4.66,7.53-4.66,15.79-2.51,23.68"/>
  <path fill="#fff" d="M190.15,95.96c2.51,10.4,9.33,19.01,17.94,25.83,11.51,9.03,25.16,13.09,39.14,15.75-.06-.85-.16-1.74-.3-2.67-2.62-18.19,24.26-26.39,24.26-33.43s-2.41-8.64-2.93-15.88c-.51-7.23,6.53-18.87,1.12-28.21-5.41-9.34-17.13-6.23-17.13-6.23-4.18-9.09-16.87-24.02-43.64,1.15-5.86,5.51-10.59,10.69-14.34,15.58-4.57,8.52-6.41,18.22-4.13,28.11"/>
  <path fill="#3d3232" d="M269.86,104.36c.83-1.01,1.32-1.98,1.32-2.92,0-5.58-1.51-7.74-2.4-11.99-5.01-1.71-14.03,6.05,1.07,14.91"/>
  <path fill="#3d3232" d="M232.2,80.17c11.55-7.61,20.92-16.09,19.89-29.41-4.34-9.12-17.05-23.33-43.47,1.51-5.47,5.14-9.95,9.99-13.58,14.59,8.41,1.5,24.95,21.35,37.15,13.31"/>
  <path fill="#686060" d="M245.98,42.55c-6.86-5.88-18.68-7.84-37.36,9.72-5.47,5.14-9.95,9.99-13.58,14.59.03,0,.06.01.1.02.13-.11.27-.21.39-.34,28.07-29.86,40.23-29.47,50.45-23.99"/>
  <path fill="#706f6f" d="M268.44,85.55c-.18-2.52.59-5.65,1.39-8.95,1.52-6.2,3.24-13.23-.29-19.34-3.26-5.63-8.77-6.81-12.81-6.81-2.18,0-3.87.35-4.37.47-1.83-3.94-7.1-12.73-17.52-12.73-7.63,0-16.5,4.69-26.34,13.95-12.6,11.85-20.6,22.68-24.45,33.12-1.79,4.85-2.67,9.65-2.64,14.47.12.01.44-3.39.66-5.12,1.7-13.32,10.36-26.86,26.67-42.2,9.78-9.19,18.56-13.85,26.1-13.85,10.33,0,15.5,8.85,17.25,12.65l.06.14.15-.04s1.88-.49,4.42-.49c3.95,0,9.33,1.15,12.5,6.64,3.46,5.98,1.76,12.94.26,19.07-.82,3.33-1.59,6.48-1.4,9.06.24,3.42.9,5.58,1.54,7.66.71,2.31,1.38,4.5,1.38,8.2,0,2.53-3.79,5.36-8.17,8.64-7.49,5.61-17.75,13.28-16.08,24.82,1.04,7.24.05,12.67-2.95,16.13-2.43,2.8-6.23,4.28-10.99,4.28h0c-1.54,0-3.18-.15-4.86-.46-10.53-1.89-17.33-9.62-19.15-21.77l-.02-.11-.11-.03c-.1-.03-5.28-1.7-11-5.26-.04.12,3.02,2.18,4.43,2.88,3.28,1.63,5.8,2.5,6.35,2.68,1.87,12.25,8.77,20.05,19.43,21.96,1.71.31,3.37.46,4.93.46h0c4.87,0,8.76-1.52,11.26-4.41,3.07-3.55,4.09-9.07,3.04-16.41-1.63-11.33,8.11-18.62,15.94-24.48,4.65-3.48,8.31-6.22,8.31-8.93,0-3.76-.68-5.97-1.4-8.31-.63-2.06-1.29-4.2-1.53-7.58"/>
  <path fill="#2b2020" d="M189.43,84.92c3.52-3.11,4.81-7.97,1.64-12.64-4.36,6.47-7,12.41-8.36,17.96,2.14,3.46,3.44-2.41,6.72-5.31"/>
  <path fill="#332a2a" d="M189.43,84.92c3.52-3.11,4.81-7.97,1.64-12.64-.26.38-.51.76-.75,1.13-.06.1-.11.2-.17.3-3.03,4.9-4.09,10.1-3.87,15.31.86-1.32,1.85-2.94,3.15-4.1"/>
  <path fill="#3d3232" d="M191.75,73.42c-1.4,3.75-2.27,7.67-2.51,11.68.06-.06.12-.12.19-.18,3.24-2.86,4.59-7.19,2.32-11.5"/>
  <path fill="#ff8082" d="M208.71,133.67c1.8,11.47,8.4,19.42,19.21,21.36,10.98,1.97,21.63-1.97,19.01-20.16-2.47-17.13,21.22-25.4,23.99-32.19-7.65-3.96-21.08-10.59-45.95-9.52-15.7.67-32.44.78-32.44,13.56,0,12.73,15.23,20.89,16.18,26.94"/>
  <path fill="#fc9297" d="M210,131.18c1.8,11.47,7.49,20,18.3,21.94,10.98,1.97,21.25-.06,18.63-18.25-2.47-17.13,21.22-25.4,23.99-32.19-7.65-3.96-21.08-10.59-45.95-9.52-15.7.67-32.44.78-32.44,13.56,0,12.73,16.52,18.41,17.47,24.46"/>
  <path fill="#f9a2a7" d="M210.73,130.57c1.8,11.47,7.31,18.94,18.11,20.87,10.98,1.97,20.71,1.61,18.09-16.58-2.47-17.13,21.22-25.4,23.99-32.19-7.65-3.96-21.08-10.59-45.95-9.52-15.7.67-32.44.78-32.44,13.56,0,12.73,17.25,17.8,18.21,23.85"/>
  <path fill="#d15056" d="M230.23,93.22c-1.71,0-3.48.04-5.25.12l-2.06.09c-14.85.61-30.21,1.25-30.21,13.3,0,7.74,5.73,13.83,10.34,18.72,2.93,3.11,5.46,5.8,5.84,8.19,1.86,11.81,8.63,19.34,19.07,21.21,1.69.3,3.32.46,4.86.46,4.76,0,8.56-1.48,10.99-4.28,3-3.46,3.99-8.89,2.95-16.13-1.66-11.54,8.59-19.21,16.08-24.82,3.68-2.75,6.87-5.14,7.85-7.32-6.52-3.38-18.59-9.54-40.46-9.54ZM232.82,155.67c-1.56,0-3.22-.15-4.93-.46-10.6-1.9-17.47-9.54-19.35-21.51-.36-2.28-2.86-4.93-5.75-8-4.65-4.94-10.44-11.08-10.44-18.97,0-12.4,15.54-13.04,30.56-13.66l2.06-.08c1.78-.08,3.55-.12,5.27-.12,22.12,0,34.25,6.28,40.77,9.65l.15.08-.06.15c-.94,2.31-4.23,4.77-8.04,7.62-7.83,5.86-17.57,13.15-15.94,24.48,1.06,7.34.04,12.87-3.04,16.41-2.5,2.88-6.39,4.41-11.26,4.41"/>
  <path fill="#541806" d="M209.27,103c2.59,5.16.13,39.25,18.16,45.8,18.03,6.56,18.85-12.95,17.37-20.49-1.47-7.54-35.53-25.32-35.53-25.32"/>
  <path fill="#772310" d="M244.8,128.31c-.38-1.93-2.9-4.54-6.45-7.35,2.16,6.51,3.05,13.2.59,19.48-1.17,3.4-2.84,6.64-4.88,9.68,11.58-.02,12.01-15.33,10.74-21.81"/>
  <path fill="#f73948" d="M227.28,135.36c-1.61-4.66-10.4-10.3-14.2-7.56,2.11,9.16,6.07,17.99,14.35,21,5.61,2.04,9.56,1.56,12.29-.31.87-5.1-4.99-15.61-12.43-13.13"/>
  <path fill="#f45151" d="M227.28,135.36c-.83-2.39-3.54-5.03-6.49-6.67-3.16.65-5.83,3.97-5.22,7.17,2.41,5.9,6.08,10.84,11.86,12.94,5.61,2.04,9.56,1.56,12.29-.31.87-5.1-4.99-15.61-12.43-13.13"/>
  <path fill="#ce3636" d="M229.14,141.21c-.21-1.94-2.02-6.27-2.59-6.93l.27-.23c.4.46,1.36,2.56,2.01,4.51.33.98.3,2.65.3,2.65"/>
  <path fill="#f99191" d="M229.02,135.02c5.28.2,7.87,6.13,9.21,10.81.43,1.5-.04,2.62-.64,3.73.78-.27,1.49-.63,2.13-1.06.8-4.7-4.1-13.97-10.69-13.48"/>
  <path fill="#ce3636" d="M213.28,127.88c2.66,11.46,7.31,18.25,14.21,20.76,5.01,1.82,9.1,1.74,12.06-.25.42-2.69-1.06-6.82-3.46-9.67-1.37-1.62-3.62-3.55-6.57-3.55-.73,0-1.46.12-2.18.36l-.17.06-.06-.17c-1.32-3.81-7.47-8.16-11.54-8.16-.91,0-1.68.21-2.29.62ZM234.03,150.31c-1.99,0-4.23-.45-6.66-1.34-7.05-2.56-11.78-9.48-14.46-21.13l-.03-.12.1-.07c.69-.5,1.57-.75,2.6-.75,4.22,0,10.32,4.28,11.82,8.24.71-.22,1.42-.33,2.13-.33,2.41,0,4.84,1.3,6.84,3.68,2.53,2.99,4.01,7.21,3.53,10.04v.07s-.07.04-.07.04c-1.62,1.1-3.56,1.66-5.78,1.66"/>
  <path fill="#d15056" d="M209.63,103.39c.55,1.55.86,4.57,1.24,8.3,1.24,12.01,3.31,32.11,16.62,36.95,2.4.87,4.6,1.31,6.54,1.31h0c3.14,0,5.67-1.15,7.53-3.4,3.92-4.77,3.98-13.49,3.06-18.2-1.35-6.91-31-22.84-35-24.96ZM234.04,150.31h0c-1.99,0-4.23-.45-6.67-1.34-13.52-4.92-15.6-25.15-16.85-37.25-.42-4.11-.76-7.35-1.41-8.64l-.25-.5.49.26c1.39.73,34.15,17.9,35.62,25.44.93,4.77.87,13.63-3.14,18.49-1.93,2.34-4.56,3.53-7.81,3.53"/>
  <path fill="#ff8082" d="M202.11,95.62c9.27-1.68,22.56-21.81,51.34-1.05,5.66,2.91,30.15-.53,24.68,20.76-5.47,21.29-32.4,20.74-36.03,8.94-6.32,1.44-24.87-1.81-34.09-11.56-9.16-9.68-5.9-17.09-5.9-17.09"/>
  <path fill="#fc9297" d="M202.11,95.62c9.27-1.68,22.56-21.81,51.34-1.05,5.66,2.91,30.15-.53,24.68,20.76-5.47,21.29-30.98,17.46-34.62,5.65-6.32,1.44-26.29,1.47-35.5-8.27-9.16-9.68-5.9-17.09-5.9-17.09"/>
  <path fill="#f9a2a7" d="M202.11,95.62c9.27-1.68,22.56-21.81,51.34-1.05,5.66,2.91,30.15-.53,24.68,20.76-5.47,21.29-30.29,16.24-33.93,4.44-6.32,1.44-26.98,2.68-36.19-7.06-9.16-9.68-5.9-17.09-5.9-17.09"/>
  <path fill="#f9cacf" d="M276.26,101.98c-5,.77-7.43,7.2-8.29,10.77,1.79-3.23,5.4-10.16,8.63-7.29,1.84,2.44,2.26,7.27,1,11.67.19-.58.37-1.18.53-1.81,1.71-6.65.78-10.58-1.87-13.35"/>
  <path fill="#f9cacf" d="M253.45,94.57c-26.46-19.09-39.83-3.61-49.01.32,1.37-.08,2.73-.35,4.01-1.08,10.4-7.53,22.96-10.4,34.08-3.23,4.31,2.51,11.3,6.73,15.96,6.73,8.38,0,15.85.33,19.68,7.9-3.71-10.02-20.21-8.3-24.73-10.63"/>
  <path fill="#d15056" d="M277.24,102.96c-3.52-5.25-11.44-6.35-17.22-7.15-2.78-.39-5.17-.72-6.47-1.38-8.73-6.3-16.68-9.36-24.28-9.36-8.36,0-14.62,3.76-19.66,6.78-2.86,1.72-5.33,3.2-7.54,3.6l-.09.02-.04.09s-.08.19-.17.5c.13-.02.26-.04.39-.04.03-.1.06-.17.08-.22,2.25-.44,4.71-1.92,7.56-3.63,5-3,11.21-6.73,19.47-6.73,7.53,0,15.4,3.04,24.09,9.31,1.37.7,3.79,1.04,6.6,1.43,6.03.84,13.54,1.88,16.97,7,1.98,2.96,2.33,7.04,1.02,12.13-3.21,12.51-13.62,16.94-21.56,16.94-6.97,0-12.65-3.22-14.13-8.02l-.05-.16-.16.04c-.93.21-2.12.32-3.53.32-7.43,0-22.24-3.21-30.39-11.82-.73-.77-1.38-1.53-1.95-2.27-.06.11-.13.21-.21.32.56.72,1.19,1.45,1.9,2.2,8.23,8.7,23.17,11.94,30.65,11.94,1.36,0,2.51-.1,3.45-.29,1.6,4.86,7.37,8.11,14.42,8.11,8.07,0,18.65-4.51,21.91-17.22,1.33-5.19.98-9.37-1.07-12.41"/>
  <path fill="#d15056" d="M110.78,109.46s.57-1.77,1.05-2.38c1.14-1.46,2.4-2.22,3.59-2.61,1.02-.33,2.82-.02,2.82-.02-2.12-.03-5.22.44-7.46,5.01"/>
  <path fill="#a53838" d="M224.77,100.09c.25,4.69-1.58,8.6-4.08,8.72-2.5.13-4.73-3.56-4.97-8.25-.24-4.69,1.58-8.6,4.08-8.72,2.5-.13,4.73,3.56,4.97,8.25"/>
  <path fill="#b24f4f" d="M219.11,91.97c-2.14.73-3.63,4.34-3.4,8.59.25,4.69,2.47,8.38,4.97,8.25.17,0,.35-.04.51-.08-5.99-3.14-3.66-14.86-2.08-16.76"/>
  <path fill="#993038" d="M219.92,92.01s-.08,0-.12,0c-1.14.06-2.18.96-2.92,2.55-.76,1.62-1.11,3.75-.99,5.99.23,4.46,2.33,8.08,4.67,8.08.04,0,.08,0,.12,0,1.14-.06,2.18-.96,2.92-2.55.76-1.62,1.11-3.75,1-5.99-.23-4.46-2.33-8.08-4.67-8.08ZM220.55,109c-2.57,0-4.78-3.7-5.02-8.42-.12-2.3.25-4.48,1.03-6.16.8-1.71,1.95-2.69,3.23-2.76,2.63-.13,4.91,3.61,5.16,8.42.12,2.3-.25,4.48-1.03,6.16-.8,1.71-1.95,2.69-3.22,2.76-.05,0-.09,0-.14,0"/>
  <path fill="#d15056" d="M227.13,108.19c3.76-6.63,1.98-14.87-1.82-18.71,0,0,1.66,1.39,2.22,2.41,1.98,3.59,2.75,8.65,1.26,13.37-.33,1.06-1.66,2.92-1.66,2.92"/>
  <path fill="#a53838" d="M275.82,115.94c-1.69,4.38-4.04,7.55-5.24,7.09-1.2-.47-.81-4.39.88-8.77s4.04-7.55,5.24-7.09c1.2.47.81,4.39-.88,8.77"/>
  <path fill="#b24f4f" d="M276.69,107.17c-.28-.11-.63-.01-1.02.25,3.42,4.09-4.75,14.78-5.52,15.19.11.2.24.35.42.42,1.21.47,3.55-2.71,5.24-7.09,1.69-4.38,2.08-8.31.88-8.77"/>
  <path fill="#993038" d="M276.44,107.31c-1.04,0-3.13,2.62-4.82,7.02-1.77,4.57-1.93,8.17-.98,8.54.96.37,3.21-2.31,5.01-6.98,1.77-4.57,1.93-8.17.98-8.54-.06-.02-.12-.03-.19-.03ZM270.82,123.26c-.11,0-.22-.02-.31-.06-1.47-.57-.76-5.02.78-9,1.62-4.2,3.79-7.25,5.16-7.25.11,0,.22.02.32.06,1.47.57.76,5.02-.78,9-1.62,4.2-3.79,7.25-5.16,7.25"/>
  <path fill="#d15056" d="M267.29,116.34s.07-2.77.44-4.03c1.34-4.58,3.88-8.17,6.08-9.57,1.02-.65,1.99-.85,2.79-.57l-.12.34c-.7-.24-1.56-.05-2.48.54-2.74,1.74-6.02,7-6.72,13.3"/>
  <path fill="#1e1616" d="M235.33,71.58c-4.59,4.89-11.2,5.71-14.76,1.82-3.57-3.89-2.74-11,1.85-15.9,4.59-4.89,11.2-5.71,14.76-1.82,3.57,3.88,2.73,11-1.85,15.89"/>
  <path fill="#110c0c" d="M234.55,71.25c-4.32,4.61-10.49,5.43-13.79,1.83-3.3-3.59-2.47-10.24,1.85-14.85,4.32-4.61,10.49-5.42,13.79-1.83,3.3,3.59,2.47,10.24-1.85,14.85"/>
  <g class="st85">
    <g class="st37">
      <g class="st40">
        <path fill="url(#radial-gradient)" d="M248.42,64.44l-19.43,22.09-20.61-20.95,19.43-22.09,20.61,20.95Z"/>
      </g>
    </g>
  </g>
  <path fill="#4f2102" d="M235.57,56.85c-1.52-1.55-3.7-2.16-6.14-1.71-2.44.44-4.84,1.89-6.76,4.06-3.61,4.1-4.52,9.76-2.12,13.17.2.28.42.55.67.8,3.16,3.21,8.94,2.15,12.9-2.35,3.6-4.1,4.52-9.76,2.12-13.17-.2-.28-.43-.55-.67-.8ZM222.41,58.93c1.98-2.25,4.47-3.74,7-4.19,2.54-.45,4.82.19,6.42,1.81.25.26.49.54.7.85,2.5,3.56,1.57,9.44-2.16,13.67-4.1,4.66-10.11,5.73-13.41,2.38-.25-.26-.49-.55-.7-.84-2.5-3.56-1.57-9.44,2.15-13.68"/>
  <g class="st38">
    <g class="st39">
      <g class="st45">
        <path fill="url(#radial-gradient1)" d="M226.55,49.06l-13.96,17.99,16.94,15.01,13.96-17.99-16.94-15.01Z"/>
      </g>
    </g>
  </g>
  <path fill="#231f20" d="M230.71,70.35c-2.1,2.54-5.31,3.18-7.18,1.42-1.86-1.76-1.67-5.26.42-7.8,2.1-2.55,5.31-3.19,7.17-1.42,1.86,1.77,1.67,5.26-.42,7.8"/>
  <g class="st42">
    <g class="st41">
      <g class="st44">
        <path fill="url(#radial-gradient2)" d="M225.97,60.21l-1.7,2.19,2.18,1.93,1.7-2.19-2.18-1.93Z"/>
      </g>
    </g>
  </g>
  <path fill="#918f90" d="M226.67,65.82c-.42,0-.83-.14-1.18-.44-.67-.57-.87-1.55-.56-2.39.8-.67,1.69-1.11,2.56-1.32.19.07.38.18.55.32.83.71.94,2.05.24,2.98-.41.55-1.01.84-1.61.84"/>
  <path fill="#d3cdcd" d="M266.61,82.59c-2.12,6.51-7.88,10.44-12.86,8.79-4.99-1.65-7.31-8.26-5.19-14.77,2.11-6.5,7.88-10.44,12.86-8.78,4.99,1.65,7.3,8.26,5.19,14.76"/>
  <path fill="#aaa2a2" d="M265.74,82.69c-1.99,6.13-7.35,9.85-11.96,8.32-4.61-1.52-6.73-7.73-4.73-13.85,1.99-6.12,7.35-9.85,11.96-8.32,4.61,1.53,6.73,7.73,4.74,13.85"/>
  <g class="st43">
    <g class="st31">
      <g class="st29">
        <path fill="url(#radial-gradient3)" d="M273.01,70.92l-7.47,25.62-23.87-6.97,7.47-25.62,23.87,6.97Z"/>
      </g>
    </g>
  </g>
  <path fill="#4f2102" d="M260.42,69.63c-2.08-.61-4.36-.08-6.42,1.49-2.07,1.58-3.66,4.01-4.49,6.84-1.56,5.33.06,10.71,3.76,12.52.31.15.64.28.97.37,4.31,1.26,9.21-2.48,10.91-8.33,1.55-5.33-.06-10.72-3.76-12.52-.31-.15-.63-.27-.97-.37ZM249.16,77.86c.85-2.93,2.51-5.43,4.65-7.07,2.15-1.63,4.54-2.18,6.73-1.54.35.1.69.23,1.02.39,3.85,1.89,5.56,7.47,3.95,12.98-1.77,6.06-6.87,9.92-11.38,8.61-.34-.1-.69-.24-1.02-.39-3.86-1.89-5.56-7.47-3.95-12.98"/>
  <g class="st35">
    <g class="st33">
      <g class="st34">
        <path fill="url(#radial-gradient4)" d="M250.55,69.7l-4.46,19.68,17.79,3.87,4.46-19.68-17.79-3.87Z"/>
      </g>
    </g>
  </g>
  <path fill="#231f20" d="M261.09,83.94c-.83,3.24-3.53,5.36-6.02,4.73-2.49-.63-3.83-3.77-2.99-7.01.83-3.24,3.52-5.36,6.01-4.73,2.49.63,3.83,3.77,3,7.01"/>
  <g class="st32">
    <g class="st30">
      <g class="st28">
        <path fill="url(#radial-gradient5)" d="M252.23,75.93l-.93,4.09,4.09.89.93-4.09-4.09-.89Z"/>
      </g>
    </g>
  </g>
  <path fill="#918f90" d="M254.1,80.92c-.15,0-.31-.02-.46-.06-.42-.11-.77-.35-1.03-.68.69-1.41,1.75-2.48,2.94-3.01.53.5.77,1.3.57,2.1-.25.98-1.1,1.64-2.02,1.64"/>
  <path fill="#1a1a1a" d="M230.22,47.68c2.83-3.08,8.38-2.8,8.77,1.05-5.8-2.92-8.77-1.05-8.77-1.05"/>
  <path d="M237.02,46.07c-1.98-.93-4.78-.31-6.54,1.4.88-.37,3.73-1.2,8.42,1.13-.16-1.14-.82-2.04-1.88-2.53ZM229.88,47.94l.3-.32c1.77-1.93,4.81-2.67,6.91-1.69,1.13.53,1.82,1.51,1.95,2.75v.15s-.09-.05-.09-.05c-5.71-2.87-8.7-1.07-8.72-1.05l-.34.21"/>
  <path fill="#1a1a1a" d="M267.07,65.77c1.62-3.75-1.05-8.43-4.77-7.14,5.21,3.78,4.77,7.14,4.77,7.14"/>
  <path d="M262.44,58.65c4.19,3.07,4.66,5.89,4.7,6.8.81-2.25.17-4.94-1.54-6.25-.92-.7-2.03-.9-3.16-.55ZM267.01,65.79s.37-3.37-4.76-7.09l-.09-.07.14-.05c1.21-.42,2.41-.23,3.39.52,1.82,1.4,2.45,4.34,1.44,6.69l-.17.39.05-.38"/>
  <path fill="#c7b299" d="M248.74,40.8c-1.08-2.53-8.09-7.46-7.83-6.66.78,2.36,4.64,7.12,4.64,7.12-2.07-.9-8.54-3.27-8.83-1.48-.17,1.02,8.77,3.45,9.13,3.48-1.63.64-8.64.15-8.51.78.21,1.06,10.13,2.54,10.77,1.6.49,3.59-6.12,15.42-3.7,14.52,2.42-.9,6.25-11.77,6.25-11.77.14,3.86-1.4,13.36-.84,14.4.56,1.04,5.02-8.32,3.63-13.61-.05-.21,1.81,12.33,3.38,11.21,1.58-1.12-.76-9.61-.76-9.61,0,0,5.25,6.76,6.62,7.17,1.36.41-4.22-6.9-4.77-7.25,1.15.46,7.89,8.62,8.57,6.95.68-1.68-5.26-6.01-6.23-6.52,4.65,1.44,8.01,3.77,8.01,3.35-1.17-1.77-13.19-7.61-11.7-7.65,2.82-.08,6.2-1.62,6.17-1.64-1.07-.86-7.3,1.34-9.3-.19-3.4-2.6-4.77-9.28-5.15-9.6-.76-.63.44,5.4.44,5.4"/>
  <path fill="#dbc9b6" d="M249.6,42.02c-1.08-2.53-8.03-7.79-7.56-7.08,1.14,1.73,5.54,7.31,5.54,7.31-2.07-.9-9.91-4.12-9.6-2.33.09.52,9.75,3.15,10.11,3.18-1.63.64-10.88.3-10.76.94.21,1.06,10.79,1.19,11.43.25.49,3.59-4.38,13.45-3.18,13.21,1.4-.28,5.09-9.12,5.09-9.12.14,3.86-.27,9.73.29,10.76.56,1.04,3.3-6.6,1.91-11.9-.06-.21,3,10.86,3.61,10.54,1.17-.61-1.52-10.13-1.52-10.13,0,0,4.74,7.39,6.1,7.8,1.36.41-4.58-6.91-5.14-7.27,1.15.46,7.96,8.53,8.41,6.77.29-1.14-4.95-4.88-5.92-5.38,4.65,1.43,9.87,5.3,9.87,4.88-1.17-1.77-14.53-8.14-13.03-8.18,2.81-.08,7.53-1.09,7.5-1.11-1.07-.86-7.3,1.34-9.3-.19-3.4-2.6-4.9-9.17-5.15-9.6-.13-.22,1.3,6.63,1.3,6.63"/>
  <path fill="#efe1d5" d="M265.66,52.53c-1.04-.36-2.07-.75-3.07-1.18,3.13,1.6,5.69,3.41,5.69,3.12-.28-.43-1.29-1.13-2.62-1.94"/>
  <path fill="#efe1d5" d="M255.25,46.29c2.81-.08,7.53-1.09,7.5-1.11-1.07-.86-7.3,1.34-9.3-.19-1.68-1.29-2.9-3.55-3.73-5.56.06,1.62.38,3.24.7,4.87-1.08-1.44-2.51-2.51-3.23-3.95.36,1.08,1.08,2.15,1.44,3.23-1.79.36-3.23.36-5.02.72,1.69,0,4-.63,4.87.18.14-.06.24-.12.28-.18.03.19.03.4.03.62,1.36,2.34-.56,5.78-.56,8.76.49-.97.97-1.98,1.37-2.86.45-1.98.65-4.03,1.54-5.8.36,2.51.72,5.02,1.08,7.53,0-2.51,0-4.67.36-7.18,1.44,1.79,1.8,3.95,2.15,6.1.36-1.79-.72-3.23-.36-5.02,1.83,1.5,3.82,2.76,5.92,3.83.78.33,1.55.69,2.29,1.07,1,.43,2.03.82,3.07,1.18-4.16-2.54-11.54-6.21-10.41-6.24"/>
  <path fill="#9b8976" d="M250.81,47.44l.03.95c.06,1.82-.24,4.83-.53,7.73-.29,2.94-.6,5.99-.35,6.56.68-.32,3.86-6.89,3.55-11.88-.28-1.65-.27-1.66-.21-1.73l.05-.06h.22l.04.14c.13.5.22,1.05.25,1.64,1.1,6.56,2.18,9.51,2.75,9.51.03,0,.07-.01.1-.04,1.21-.86-.19-7.09-.83-9.42l-.24-.87.55.71c1.44,1.86,5.41,6.73,6.51,7.1-.13-.9-4.28-6.53-4.9-6.92l.16-.32c.42.17,1.36,1.11,2.87,2.65,1.87,1.9,4.43,4.51,5.29,4.51.09,0,.14-.03.17-.12.59-1.45-4.99-5.69-6.15-6.29l.14-.33c2.79.86,5.14,2.06,6.54,2.77.32.16.64.32.88.44-1.17-1.03-4.29-2.8-6.86-4.27-4.04-2.3-4.68-2.73-4.6-3.06.02-.07.08-.18.3-.19,2.21-.06,4.8-1.05,5.73-1.44-.57-.11-1.75.04-3,.21-1.11.15-2.37.33-3.47.33-1.16,0-1.97-.19-2.49-.59-2.59-1.98-4.03-6.33-4.73-8.42-.15-.45-.29-.88-.38-1.08-.09.63.26,2.99.68,5.13l.34,1.71-.68-1.61c-.9-2.12-6.21-6.07-7.42-6.58.91,2.36,4.49,6.81,4.53,6.86l.46.57-.67-.29c-1.26-.55-5.33-2.11-7.45-2.11-.7,0-1.08.17-1.13.5-.03.73,8.04,3.17,8.97,3.27l.73.08-.68.27c-.84.33-2.9.37-4.9.41-1.4.03-3.13.06-3.48.23.4.6,5.67,1.7,8.97,1.7,1.27,0,1.44-.2,1.46-.22l.26-.38.06.46c.25,1.8-1.21,5.53-2.5,8.82-.93,2.39-1.99,5.1-1.68,5.56.02.03.02.08.24,0,2.32-.86,6.11-11.55,6.15-11.66l.32-.89ZM249.94,63.05c-.12,0-.21-.06-.28-.17-.31-.57-.09-2.95.29-6.79.24-2.41.49-4.88.53-6.69-1,2.69-3.95,10.16-6.01,10.93-.31.11-.53.06-.67-.13-.4-.59.33-2.52,1.64-5.89,1.2-3.08,2.56-6.54,2.5-8.35-.24.09-.67.17-1.45.17-2.5,0-9.13-.97-9.34-2.04-.01-.08,0-.16.06-.22.23-.29,1.28-.34,3.79-.39,1.46-.03,3.06-.06,4.07-.21-2.08-.54-7.67-2.19-8.42-3.16-.09-.12-.13-.24-.11-.35.09-.53.59-.8,1.49-.8,1.91,0,5.22,1.18,6.95,1.87-1.04-1.32-3.6-4.71-4.23-6.62-.04-.11,0-.19.02-.23.03-.03.09-.09.2-.09.68,0,5.58,3.49,7.4,5.97-.3-1.62-.7-4.17-.38-4.57.1-.12.27-.14.42-.01.13.11.24.43.54,1.34.68,2.06,2.1,6.33,4.61,8.25.46.35,1.2.52,2.27.52s2.32-.17,3.42-.32c.95-.13,1.85-.25,2.52-.25.54,0,.88.08,1.09.25l.1.08-.04.12c-.08.22-3.53,1.62-6.16,1.75.54.46,2.52,1.58,4.29,2.59,3.16,1.8,6.73,3.83,7.37,4.79l.03.05v.05c0,.11-.08.23-.24.23-.21,0-.59-.19-1.52-.66-1.17-.6-3-1.53-5.2-2.32,2.03,1.45,5.76,4.5,5.16,5.98-.09.22-.27.34-.5.34-.94,0-2.98-2-5.55-4.62-.33-.34-.66-.67-.96-.98,1.55,1.98,3.61,4.88,3.43,5.49-.05.17-.21.25-.43.18-1.15-.35-4.79-4.81-6.18-6.55.57,2.26,1.86,7.99.47,8.97-.1.07-.2.1-.31.1-1.05,0-2.05-4-2.79-7.99-.35,4.2-2.43,9.04-3.46,10.14-.17.18-.31.26-.44.26"/>
</svg>